<svg xmlns="http://www.w3.org/2000/svg" xmlns:xlink="http://www.w3.org/1999/xlink" width="500" zoomAndPan="magnify" viewBox="0 0 375 374.999991" height="500" preserveAspectRatio="xMidYMid meet" version="1.0"><rect x="-37.5" width="450" fill="#ffffff" y="-37.499999" height="449.999989" fill-opacity="1"/><rect x="-37.5" width="450" fill="#ffffff" y="-37.499999" height="449.999989" fill-opacity="1"/><path fill="#21559b" d="M 106.5625 150.75 C 107.519531 148.503906 108.5625 146.292969 109.683594 144.121094 C 110.804688 141.949219 112.003906 139.820312 113.28125 137.734375 C 114.554688 135.648438 115.90625 133.613281 117.332031 131.628906 C 118.757812 129.644531 120.253906 127.710938 121.820312 125.835938 C 123.386719 123.957031 125.019531 122.140625 126.71875 120.382812 C 128.417969 118.625 130.175781 116.933594 132 115.304688 C 133.820312 113.675781 135.703125 112.117188 137.636719 110.625 C 139.574219 109.132812 141.5625 107.714844 143.605469 106.367188 C 145.644531 105.023438 147.730469 103.75 149.863281 102.558594 C 151.996094 101.363281 154.171875 100.25 156.382812 99.214844 C 158.597656 98.179688 160.847656 97.226562 163.132812 96.355469 C 165.414062 95.484375 167.730469 94.699219 170.070312 93.996094 C 172.410156 93.292969 174.777344 92.679688 177.160156 92.148438 C 179.546875 91.621094 181.949219 91.179688 184.371094 90.824219 C 186.789062 90.46875 189.214844 90.207031 191.652344 90.027344 C 194.09375 89.851562 196.535156 89.765625 198.976562 89.765625 L 325.917969 89.765625 C 324.28125 87.617188 322.59375 85.511719 320.859375 83.445312 C 319.121094 81.375 317.332031 79.351562 315.5 77.371094 C 313.664062 75.390625 311.785156 73.453125 309.855469 71.5625 C 307.929688 69.667969 305.957031 67.824219 303.941406 66.027344 C 301.925781 64.230469 299.867188 62.484375 297.769531 60.785156 C 295.667969 59.085938 293.53125 57.4375 291.351562 55.84375 C 289.171875 54.246094 286.957031 52.703125 284.703125 51.214844 C 282.453125 49.722656 280.164062 48.289062 277.84375 46.910156 C 275.523438 45.527344 273.171875 44.203125 270.785156 42.9375 C 268.402344 41.671875 265.988281 40.460938 263.546875 39.308594 C 261.101562 38.15625 258.632812 37.0625 256.140625 36.03125 C 253.644531 34.996094 251.125 34.023438 248.585938 33.109375 C 246.042969 32.199219 243.480469 31.347656 240.898438 30.554688 C 238.316406 29.765625 235.714844 29.039062 233.097656 28.371094 C 230.480469 27.707031 227.851562 27.105469 225.203125 26.5625 C 222.558594 26.023438 219.902344 25.546875 217.230469 25.136719 C 214.5625 24.722656 211.886719 24.375 209.199219 24.09375 C 206.515625 23.808594 203.824219 23.589844 201.128906 23.433594 C 198.433594 23.277344 195.734375 23.1875 193.03125 23.164062 C 190.332031 23.136719 187.632812 23.175781 184.933594 23.28125 C 182.234375 23.382812 179.542969 23.550781 176.851562 23.785156 C 174.160156 24.015625 171.476562 24.3125 168.800781 24.675781 C 166.125 25.035156 163.457031 25.460938 160.804688 25.949219 C 158.148438 26.441406 155.503906 26.992188 152.875 27.609375 C 150.246094 28.222656 147.632812 28.902344 145.035156 29.640625 C 142.4375 30.382812 139.859375 31.1875 137.300781 32.050781 C 134.742188 32.914062 132.207031 33.839844 129.691406 34.824219 C 127.179688 35.8125 124.691406 36.855469 122.226562 37.960938 C 119.761719 39.066406 117.324219 40.230469 114.917969 41.453125 C 112.507812 42.675781 110.132812 43.953125 107.785156 45.289062 C 105.4375 46.625 103.125 48.015625 100.84375 49.460938 C 98.5625 50.910156 96.320312 52.410156 94.109375 53.964844 C 91.902344 55.519531 89.730469 57.125 87.601562 58.78125 C 85.46875 60.441406 83.378906 62.148438 81.328125 63.90625 C 79.277344 65.664062 77.273438 67.472656 75.308594 69.328125 C 73.347656 71.179688 71.429688 73.082031 69.554688 75.027344 C 67.683594 76.972656 65.859375 78.964844 64.082031 80.996094 C 62.308594 83.03125 60.578125 85.105469 58.902344 87.222656 C 57.226562 89.339844 55.597656 91.496094 54.027344 93.691406 C 52.453125 95.882812 50.929688 98.113281 49.464844 100.382812 C 47.996094 102.648438 46.585938 104.949219 45.226562 107.285156 C 43.871094 109.621094 42.570312 111.984375 41.328125 114.382812 C 40.082031 116.78125 38.898438 119.207031 37.769531 121.660156 C 36.644531 124.113281 35.574219 126.59375 34.566406 129.097656 C 33.558594 131.605469 32.609375 134.132812 31.722656 136.683594 C 30.835938 139.234375 30.011719 141.804688 29.246094 144.394531 C 28.480469 146.984375 27.78125 149.589844 27.140625 152.214844 C 26.5 154.839844 25.925781 157.476562 25.414062 160.128906 C 24.898438 162.777344 24.449219 165.441406 24.066406 168.113281 C 23.679688 170.785156 23.359375 173.46875 23.101562 176.15625 C 22.84375 178.84375 22.652344 181.535156 22.523438 184.234375 C 22.398438 186.933594 22.332031 189.628906 22.335938 192.332031 C 22.335938 195.03125 22.402344 197.730469 22.53125 200.429688 C 22.664062 203.125 22.859375 205.816406 23.117188 208.507812 C 23.378906 211.195312 23.703125 213.875 24.089844 216.546875 C 24.480469 219.21875 24.929688 221.882812 25.445312 224.53125 C 25.960938 227.183594 26.542969 229.820312 27.183594 232.441406 C 27.824219 235.066406 28.53125 237.671875 29.296875 240.261719 C 30.0625 242.851562 30.890625 245.421875 31.78125 247.96875 C 32.671875 250.519531 33.621094 253.046875 34.632812 255.550781 C 35.644531 258.054688 36.714844 260.53125 37.84375 262.984375 C 38.976562 265.4375 40.164062 267.863281 41.410156 270.257812 C 42.65625 272.65625 43.957031 275.019531 45.316406 277.351562 C 46.675781 279.6875 48.089844 281.984375 49.558594 284.25 Z M 106.5625 150.75 " fill-opacity="1" fill-rule="nonzero"/><path fill="#21559b" d="M 298.523438 154.730469 L 195.476562 154.730469 C 194 154.730469 192.535156 154.839844 191.078125 155.050781 C 189.617188 155.265625 188.183594 155.585938 186.769531 156.007812 C 185.359375 156.433594 183.984375 156.957031 182.648438 157.582031 C 181.316406 158.207031 180.03125 158.921875 178.800781 159.734375 C 177.570312 160.546875 176.40625 161.445312 175.308594 162.425781 C 174.207031 163.410156 173.1875 164.46875 172.242188 165.597656 C 171.296875 166.730469 170.441406 167.925781 169.671875 169.183594 C 168.902344 170.4375 168.226562 171.746094 167.648438 173.101562 L 153.957031 205.253906 L 319.597656 205.253906 C 318.832031 207.046875 318 208.8125 317.105469 210.546875 C 316.210938 212.28125 315.253906 213.980469 314.234375 215.644531 C 313.214844 217.308594 312.136719 218.933594 311 220.519531 C 309.863281 222.105469 308.667969 223.648438 307.417969 225.144531 C 306.167969 226.644531 304.863281 228.09375 303.507812 229.496094 C 302.152344 230.902344 300.746094 232.253906 299.289062 233.554688 C 297.835938 234.855469 296.335938 236.101562 294.789062 237.292969 C 293.242188 238.484375 291.65625 239.617188 290.027344 240.691406 C 288.398438 241.765625 286.734375 242.78125 285.03125 243.734375 C 283.328125 244.691406 281.59375 245.582031 279.828125 246.40625 C 278.058594 247.234375 276.265625 247.996094 274.441406 248.691406 C 272.617188 249.390625 270.769531 250.019531 268.902344 250.578125 C 267.035156 251.140625 265.144531 251.632812 263.242188 252.058594 C 261.335938 252.480469 259.417969 252.835938 257.488281 253.117188 C 255.558594 253.402344 253.617188 253.617188 251.671875 253.757812 C 249.726562 253.898438 247.777344 253.972656 245.824219 253.972656 L 154.640625 253.972656 C 153.054688 253.972656 151.472656 254.085938 149.902344 254.316406 C 148.332031 254.550781 146.785156 254.894531 145.265625 255.351562 C 143.746094 255.808594 142.265625 256.371094 140.828125 257.046875 C 139.386719 257.71875 138.007812 258.492188 136.683594 259.367188 C 135.355469 260.242188 134.101562 261.210938 132.917969 262.269531 C 131.734375 263.328125 130.632812 264.464844 129.617188 265.683594 C 128.601562 266.902344 127.675781 268.191406 126.847656 269.542969 C 126.019531 270.898438 125.292969 272.304688 124.667969 273.765625 L 99.042969 333.824219 C 102.714844 336.21875 106.476562 338.464844 110.324219 340.566406 C 114.171875 342.667969 118.097656 344.617188 122.097656 346.414062 C 126.097656 348.207031 130.160156 349.847656 134.285156 351.328125 C 138.414062 352.808594 142.59375 354.125 146.820312 355.277344 C 151.050781 356.433594 155.320312 357.421875 159.625 358.246094 C 163.933594 359.070312 168.265625 359.722656 172.621094 360.210938 C 176.976562 360.695312 181.347656 361.011719 185.730469 361.160156 C 190.113281 361.304688 194.492188 361.28125 198.871094 361.085938 C 203.253906 360.894531 207.617188 360.527344 211.96875 359.996094 C 216.320312 359.460938 220.648438 358.757812 224.945312 357.886719 C 229.242188 357.019531 233.496094 355.984375 237.714844 354.78125 C 241.929688 353.582031 246.09375 352.21875 250.207031 350.691406 C 254.316406 349.167969 258.359375 347.484375 262.339844 345.644531 C 266.320312 343.804688 270.222656 341.816406 274.046875 339.671875 C 277.871094 337.527344 281.609375 335.242188 285.253906 332.808594 C 288.902344 330.375 292.449219 327.800781 295.894531 325.09375 C 299.34375 322.382812 302.679688 319.542969 305.90625 316.574219 C 309.132812 313.605469 312.238281 310.515625 315.222656 307.304688 C 318.210938 304.09375 321.066406 300.773438 323.792969 297.339844 C 326.523438 293.910156 329.113281 290.375 331.566406 286.742188 C 334.019531 283.105469 336.324219 279.382812 338.488281 275.570312 C 340.652344 271.757812 342.664062 267.863281 344.523438 263.894531 C 346.386719 259.925781 348.089844 255.886719 349.636719 251.785156 C 351.183594 247.683594 352.566406 243.527344 353.792969 239.316406 C 355.015625 235.105469 356.074219 230.855469 356.964844 226.5625 C 357.859375 222.269531 358.582031 217.949219 359.140625 213.601562 C 359.695312 209.25 360.085938 204.886719 360.300781 200.507812 C 360.519531 196.128906 360.566406 191.75 360.441406 187.367188 C 360.320312 182.984375 360.027344 178.613281 359.5625 174.253906 C 359.101562 169.894531 358.46875 165.558594 357.667969 161.246094 C 356.867188 156.9375 355.902344 152.664062 354.769531 148.429688 C 353.636719 144.191406 352.339844 140.007812 350.882812 135.871094 C 347.230469 138.902344 343.347656 141.589844 339.226562 143.945312 C 335.109375 146.296875 330.816406 148.277344 326.355469 149.886719 C 321.890625 151.492188 317.324219 152.703125 312.648438 153.515625 C 307.976562 154.332031 303.269531 154.734375 298.523438 154.730469 Z M 298.523438 154.730469 " fill-opacity="1" fill-rule="nonzero"/><path fill="#efb300" d="M 106.5625 150.75 C 107.519531 148.503906 108.5625 146.292969 109.683594 144.121094 C 110.804688 141.949219 112.003906 139.820312 113.28125 137.734375 C 114.554688 135.648438 115.90625 133.613281 117.332031 131.628906 C 118.757812 129.644531 120.253906 127.710938 121.820312 125.835938 C 123.386719 123.957031 125.019531 122.140625 126.71875 120.382812 C 128.417969 118.625 130.175781 116.933594 132 115.304688 C 133.820312 113.675781 135.703125 112.117188 137.636719 110.625 C 139.574219 109.132812 141.5625 107.714844 143.605469 106.367188 C 145.644531 105.023438 147.730469 103.75 149.863281 102.558594 C 151.996094 101.363281 154.171875 100.25 156.382812 99.214844 C 158.597656 98.179688 160.847656 97.226562 163.132812 96.355469 C 165.414062 95.484375 167.730469 94.699219 170.070312 93.996094 C 172.410156 93.292969 174.777344 92.679688 177.160156 92.148438 C 179.546875 91.621094 181.949219 91.179688 184.371094 90.824219 C 186.789062 90.46875 189.214844 90.207031 191.652344 90.027344 C 194.09375 89.851562 196.535156 89.765625 198.976562 89.765625 L 325.894531 89.765625 C 324.257812 87.621094 322.574219 85.511719 320.835938 83.445312 C 319.097656 81.378906 317.3125 79.355469 315.476562 77.375 C 313.644531 75.394531 311.761719 73.457031 309.835938 71.566406 C 307.90625 69.675781 305.9375 67.832031 303.921875 66.035156 C 301.90625 64.238281 299.847656 62.492188 297.75 60.796875 C 295.648438 59.097656 293.511719 57.449219 291.332031 55.855469 C 289.15625 54.261719 286.9375 52.71875 284.6875 51.226562 C 282.433594 49.738281 280.148438 48.304688 277.828125 46.925781 C 275.507812 45.546875 273.15625 44.222656 270.769531 42.953125 C 268.386719 41.6875 265.972656 40.480469 263.53125 39.328125 C 261.089844 38.175781 258.621094 37.082031 256.128906 36.050781 C 253.632812 35.015625 251.113281 34.042969 248.574219 33.132812 C 246.03125 32.21875 243.472656 31.367188 240.890625 30.578125 C 238.308594 29.789062 235.707031 29.0625 233.09375 28.394531 C 230.476562 27.730469 227.84375 27.128906 225.199219 26.589844 C 222.554688 26.050781 219.898438 25.574219 217.226562 25.160156 C 214.558594 24.75 211.882812 24.402344 209.199219 24.117188 C 206.511719 23.835938 203.824219 23.617188 201.128906 23.460938 C 198.433594 23.304688 195.734375 23.214844 193.035156 23.191406 C 190.335938 23.164062 187.636719 23.203125 184.9375 23.308594 C 182.242188 23.410156 179.546875 23.578125 176.855469 23.8125 C 174.167969 24.042969 171.484375 24.339844 168.808594 24.703125 C 166.132812 25.0625 163.46875 25.488281 160.8125 25.976562 C 158.15625 26.46875 155.515625 27.019531 152.886719 27.636719 C 150.257812 28.25 147.644531 28.929688 145.050781 29.667969 C 142.453125 30.410156 139.875 31.210938 137.316406 32.078125 C 134.761719 32.941406 132.222656 33.867188 129.710938 34.851562 C 127.195312 35.835938 124.707031 36.882812 122.246094 37.988281 C 119.78125 39.09375 117.347656 40.253906 114.9375 41.476562 C 112.53125 42.699219 110.152344 43.976562 107.808594 45.3125 C 105.460938 46.648438 103.148438 48.039062 100.867188 49.484375 C 98.585938 50.929688 96.34375 52.429688 94.136719 53.984375 C 91.929688 55.539062 89.757812 57.144531 87.628906 58.800781 C 85.496094 60.460938 83.40625 62.167969 81.355469 63.925781 C 79.308594 65.683594 77.300781 67.488281 75.339844 69.34375 C 73.375 71.195312 71.460938 73.097656 69.585938 75.042969 C 67.714844 76.988281 65.890625 78.976562 64.117188 81.011719 C 62.339844 83.042969 60.613281 85.117188 58.933594 87.234375 C 57.257812 89.351562 55.632812 91.503906 54.058594 93.699219 C 52.484375 95.894531 50.964844 98.125 49.5 100.390625 C 48.03125 102.65625 46.621094 104.957031 45.261719 107.292969 C 43.90625 109.625 42.605469 111.992188 41.363281 114.386719 C 40.117188 116.785156 38.933594 119.207031 37.804688 121.660156 C 36.679688 124.117188 35.613281 126.59375 34.601562 129.097656 C 33.59375 131.601562 32.648438 134.128906 31.757812 136.679688 C 30.871094 139.230469 30.046875 141.800781 29.28125 144.390625 C 28.519531 146.980469 27.816406 149.585938 27.175781 152.207031 C 26.535156 154.832031 25.960938 157.46875 25.449219 160.117188 C 24.933594 162.769531 24.484375 165.429688 24.101562 168.101562 C 23.714844 170.773438 23.394531 173.457031 23.136719 176.144531 C 22.878906 178.832031 22.6875 181.523438 22.558594 184.21875 C 22.429688 186.917969 22.367188 189.613281 22.367188 192.316406 C 22.367188 195.015625 22.433594 197.710938 22.5625 200.410156 C 22.695312 203.105469 22.890625 205.796875 23.148438 208.484375 C 23.40625 211.171875 23.730469 213.851562 24.117188 216.523438 C 24.507812 219.195312 24.957031 221.859375 25.472656 224.507812 C 25.988281 227.15625 26.566406 229.792969 27.207031 232.417969 C 27.851562 235.039062 28.554688 237.644531 29.320312 240.234375 C 30.085938 242.824219 30.914062 245.390625 31.804688 247.941406 C 32.691406 250.492188 33.644531 253.015625 34.652344 255.519531 C 35.664062 258.023438 36.734375 260.503906 37.863281 262.953125 C 38.992188 265.40625 40.179688 267.832031 41.425781 270.226562 C 42.671875 272.621094 43.972656 274.988281 45.332031 277.320312 C 46.6875 279.652344 48.101562 281.953125 49.570312 284.21875 Z M 106.5625 150.75 " fill-opacity="1" fill-rule="nonzero"/><path fill="#113566" d="M 298.523438 154.730469 L 195.476562 154.730469 C 194 154.730469 192.535156 154.839844 191.078125 155.050781 C 189.617188 155.265625 188.183594 155.585938 186.769531 156.007812 C 185.359375 156.433594 183.984375 156.957031 182.648438 157.582031 C 181.316406 158.207031 180.03125 158.921875 178.800781 159.734375 C 177.570312 160.546875 176.40625 161.445312 175.308594 162.425781 C 174.207031 163.410156 173.1875 164.46875 172.242188 165.597656 C 171.296875 166.730469 170.441406 167.925781 169.671875 169.183594 C 168.902344 170.4375 168.226562 171.746094 167.648438 173.101562 L 153.957031 205.253906 L 180.882812 205.253906 L 185.570312 194.277344 C 186.152344 192.921875 186.824219 191.613281 187.59375 190.355469 C 188.363281 189.097656 189.222656 187.90625 190.164062 186.773438 C 191.109375 185.640625 192.132812 184.582031 193.230469 183.601562 C 194.328125 182.617188 195.496094 181.71875 196.726562 180.90625 C 197.953125 180.09375 199.238281 179.375 200.574219 178.75 C 201.910156 178.125 203.28125 177.601562 204.695312 177.175781 C 206.105469 176.753906 207.542969 176.433594 209 176.21875 C 210.457031 176.003906 211.925781 175.898438 213.398438 175.898438 L 294.222656 175.898438 C 328.019531 176.332031 358.878906 149.289062 366.765625 118.277344 C 364.898438 121.074219 362.867188 123.746094 360.671875 126.289062 C 358.476562 128.835938 356.132812 131.234375 353.640625 133.492188 C 351.152344 135.75 348.53125 137.847656 345.785156 139.78125 C 343.035156 141.714844 340.179688 143.476562 337.214844 145.058594 C 334.25 146.644531 331.199219 148.039062 328.0625 149.246094 C 324.925781 150.457031 321.726562 151.46875 318.464844 152.285156 C 315.207031 153.097656 311.90625 153.710938 308.570312 154.121094 C 305.234375 154.53125 301.886719 154.734375 298.523438 154.730469 Z M 298.523438 154.730469 " fill-opacity="1" fill-rule="nonzero"/><path fill="#113566" d="M 245.824219 253.972656 L 154.640625 253.972656 C 153.054688 253.972656 151.472656 254.085938 149.902344 254.316406 C 148.332031 254.550781 146.785156 254.894531 145.265625 255.351562 C 143.746094 255.808594 142.265625 256.371094 140.828125 257.046875 C 139.386719 257.71875 138.007812 258.492188 136.683594 259.367188 C 135.355469 260.242188 134.101562 261.210938 132.917969 262.269531 C 131.734375 263.328125 130.632812 264.464844 129.617188 265.683594 C 128.601562 266.902344 127.675781 268.191406 126.847656 269.542969 C 126.019531 270.898438 125.292969 272.304688 124.667969 273.765625 L 87.175781 361.617188 C 100.867188 361.765625 116.976562 353.1875 120.777344 345.851562 L 142.523438 294.929688 C 143.148438 293.472656 143.875 292.0625 144.703125 290.710938 C 145.53125 289.355469 146.457031 288.070312 147.472656 286.851562 C 148.492188 285.632812 149.59375 284.492188 150.777344 283.4375 C 151.960938 282.378906 153.214844 281.410156 154.539062 280.539062 C 155.863281 279.664062 157.246094 278.890625 158.683594 278.214844 C 160.121094 277.542969 161.601562 276.980469 163.121094 276.523438 C 164.640625 276.066406 166.1875 275.722656 167.757812 275.492188 C 169.328125 275.261719 170.910156 275.148438 172.496094 275.148438 L 250.980469 275.148438 C 283.109375 275.148438 319.597656 246.15625 319.597656 205.253906 C 318.832031 207.046875 318 208.8125 317.105469 210.546875 C 316.210938 212.28125 315.253906 213.980469 314.234375 215.644531 C 313.214844 217.308594 312.136719 218.933594 311 220.519531 C 309.863281 222.105469 308.667969 223.648438 307.417969 225.144531 C 306.167969 226.644531 304.863281 228.09375 303.507812 229.496094 C 302.152344 230.902344 300.746094 232.253906 299.289062 233.554688 C 297.835938 234.855469 296.335938 236.101562 294.789062 237.292969 C 293.246094 238.484375 291.65625 239.617188 290.027344 240.691406 C 288.398438 241.765625 286.734375 242.78125 285.03125 243.734375 C 283.328125 244.691406 281.59375 245.582031 279.828125 246.40625 C 278.058594 247.234375 276.265625 247.996094 274.441406 248.691406 C 272.617188 249.390625 270.769531 250.019531 268.902344 250.578125 C 267.035156 251.140625 265.144531 251.632812 263.242188 252.058594 C 261.335938 252.480469 259.417969 252.835938 257.488281 253.117188 C 255.558594 253.402344 253.617188 253.617188 251.671875 253.757812 C 249.726562 253.898438 247.777344 253.972656 245.824219 253.972656 Z M 245.824219 253.972656 " fill-opacity="1" fill-rule="nonzero"/></svg>