<svg width="1848" height="2273" viewBox="0 0 1848 2273" fill="none" xmlns="http://www.w3.org/2000/svg">
<path d="M43.6021 196.562C41.4474 174.576 57.5219 154.985 79.5055 152.806L1571.85 4.81988C1593.83 2.63991 1613.4 18.6959 1615.55 40.682L1806.99 1994.08C1809.15 2016.07 1793.07 2035.66 1771.09 2037.84L278.746 2185.83C256.762 2188.01 237.194 2171.95 235.04 2149.96L43.6021 196.562Z" fill="#62654F"/>
<path d="M144.881 130.066C145.818 107.995 164.469 90.87 186.54 91.8172L1684.75 156.115C1706.82 157.062 1723.95 175.722 1723.02 197.794L1639.84 2158.88C1638.91 2180.96 1620.25 2198.08 1598.18 2197.13L99.9727 2132.84C77.9017 2131.89 60.7684 2113.23 61.7046 2091.16L144.881 130.066Z" fill="#828573"/>
<path d="M5.75967 289.071C2.69548 267.193 17.9429 246.945 39.8157 243.845L1524.73 33.4052C1546.61 30.3054 1566.82 45.528 1569.89 67.4059L1842.11 2011.08C1845.18 2032.95 1829.93 2053.2 1808.06 2056.3L323.141 2266.74C301.268 2269.84 281.052 2254.62 277.988 2232.74L5.75967 289.071Z" fill="#BABF9C"/>
<path d="M99.6516 193.382C99.5672 171.291 117.407 153.313 139.499 153.228L1639.06 147.433C1661.15 147.348 1679.13 165.187 1679.21 187.278L1686.71 2150.14C1686.79 2172.23 1668.95 2190.21 1646.86 2190.29L147.3 2196.09C125.209 2196.17 107.232 2178.33 107.148 2156.24L99.6516 193.382Z" fill="#D9DFB7"/>
<path d="M97.1796 236.29C95.9679 214.231 112.867 195.356 134.924 194.13L1632.21 110.911C1654.27 109.685 1673.13 126.573 1674.35 148.631L1782 2108.52C1783.21 2130.57 1766.31 2149.45 1744.26 2150.67L246.966 2233.89C224.909 2235.12 206.046 2218.23 204.834 2196.17L97.1796 236.29Z" fill="#F4FBCE"/>
<path d="M97.1796 236.289C95.9679 214.231 112.867 195.356 134.924 194.13L883.569 152.52L903.803 520.878L115.219 564.707L97.1796 236.289Z" fill="#CA3F3F"/>
<path d="M883.569 152.52L1632.21 110.911C1654.27 109.685 1673.13 126.573 1674.35 148.631L1692.39 477.048L903.803 520.878L883.569 152.52Z" fill="#519C41"/>
<path d="M1226.42 308.132C1225.86 306.626 1225.13 305.292 1224.23 304.128C1223.35 302.944 1222.31 301.949 1221.11 301.143C1219.93 300.336 1218.59 299.756 1217.09 299.403C1215.59 299.031 1213.97 298.894 1212.23 298.99C1209.11 299.164 1206.37 300.103 1204.02 301.808C1201.66 303.513 1199.87 305.927 1198.64 309.05C1197.43 312.152 1196.94 315.878 1197.18 320.228C1197.42 324.615 1198.31 328.293 1199.86 331.261C1201.41 334.228 1203.45 336.438 1206 337.89C1208.54 339.323 1211.44 339.949 1214.7 339.769C1217.65 339.605 1220.17 338.895 1222.26 337.641C1224.37 336.385 1225.96 334.685 1227.02 332.54C1228.07 330.375 1228.52 327.884 1228.37 325.067L1230.77 325.303L1215 326.179L1214.55 317.953L1238.12 316.643L1238.5 323.621C1238.78 328.595 1237.96 332.956 1236.04 336.704C1234.12 340.453 1231.36 343.414 1227.76 345.586C1224.16 347.74 1219.96 348.951 1215.16 349.218C1209.81 349.515 1205.04 348.575 1200.86 346.399C1196.7 344.202 1193.36 340.945 1190.85 336.627C1188.36 332.289 1186.94 327.056 1186.6 320.929C1186.35 316.239 1186.78 312.014 1187.9 308.252C1189.04 304.49 1190.74 301.256 1193 298.551C1195.26 295.827 1197.97 293.703 1201.13 292.181C1204.29 290.64 1207.77 289.763 1211.57 289.552C1214.78 289.374 1217.81 289.68 1220.64 290.471C1223.47 291.243 1226.01 292.43 1228.26 294.031C1230.53 295.631 1232.43 297.574 1233.96 299.86C1235.49 302.146 1236.55 304.705 1237.14 307.536L1226.42 308.132ZM1268.57 346.306C1264.31 346.543 1260.57 345.811 1257.35 344.113C1254.13 342.414 1251.56 339.929 1249.66 336.659C1247.77 333.387 1246.7 329.501 1246.45 325C1246.21 320.5 1246.84 316.509 1248.36 313.03C1249.89 309.549 1252.17 306.786 1255.19 304.74C1258.2 302.695 1261.84 301.554 1266.09 301.317C1270.35 301.081 1274.09 301.812 1277.31 303.511C1280.53 305.209 1283.09 307.704 1284.98 310.994C1286.88 314.284 1287.96 318.179 1288.21 322.68C1288.46 327.18 1287.81 331.162 1286.28 334.624C1284.76 338.084 1282.49 340.837 1279.47 342.883C1276.46 344.929 1272.82 346.07 1268.57 346.306ZM1268.17 338.077C1270.48 337.949 1272.37 337.208 1273.85 335.855C1275.33 334.482 1276.39 332.697 1277.03 330.5C1277.69 328.301 1277.94 325.877 1277.8 323.23C1277.65 320.563 1277.13 318.174 1276.24 316.061C1275.36 313.928 1274.11 312.262 1272.49 311.062C1270.87 309.863 1268.91 309.327 1266.6 309.455C1264.23 309.587 1262.3 310.339 1260.8 311.712C1259.32 313.084 1258.26 314.879 1257.6 317.097C1256.96 319.295 1256.72 321.727 1256.86 324.393C1257.01 327.041 1257.52 329.422 1258.39 331.535C1259.29 333.648 1260.54 335.304 1262.17 336.504C1263.81 337.684 1265.81 338.208 1268.17 338.077ZM1317.47 299.031L1317.91 306.973L1292.86 308.365L1292.43 300.423L1317.47 299.031ZM1298.04 289.64L1308.31 289.069L1310.55 329.974C1310.63 331.354 1310.89 332.402 1311.35 333.116C1311.83 333.81 1312.42 334.271 1313.13 334.496C1313.85 334.722 1314.63 334.812 1315.48 334.764C1316.12 334.729 1316.71 334.649 1317.23 334.525C1317.78 334.4 1318.19 334.292 1318.47 334.2L1320.64 342.132C1320.1 342.351 1319.33 342.603 1318.32 342.887C1317.33 343.169 1316.11 343.37 1314.65 343.489C1312.08 343.707 1309.75 343.448 1307.64 342.712C1305.53 341.956 1303.82 340.705 1302.51 338.957C1301.22 337.207 1300.51 334.971 1300.38 332.246L1298.04 289.64ZM1356.05 282.318L1359.25 340.413L1348.72 340.998L1345.53 282.903L1356.05 282.318ZM1389.55 295.025L1389.99 302.967L1364.94 304.359L1364.5 296.417L1389.55 295.025ZM1370.11 285.634L1380.38 285.063L1382.63 325.968C1382.7 327.348 1382.97 328.396 1383.43 329.11C1383.9 329.804 1384.5 330.265 1385.21 330.49C1385.92 330.716 1386.71 330.806 1387.56 330.758C1388.2 330.723 1388.78 330.643 1389.31 330.519C1389.85 330.394 1390.26 330.286 1390.54 330.194L1392.71 338.126C1392.18 338.345 1391.4 338.597 1390.39 338.881C1389.4 339.163 1388.18 339.364 1386.73 339.483C1384.16 339.701 1381.82 339.442 1379.72 338.706C1377.61 337.95 1375.9 336.699 1374.59 334.951C1373.3 333.201 1372.58 330.965 1372.45 328.24L1370.11 285.634Z" fill="white"/>
<path d="M301.636 356.942C301.235 354.479 300.014 352.612 297.971 351.341C295.948 350.069 293.376 349.519 290.256 349.693C288.062 349.815 286.199 350.25 284.665 350.999C283.132 351.748 281.981 352.713 281.211 353.894C280.441 355.075 280.087 356.394 280.148 357.852C280.215 359.062 280.546 360.096 281.144 360.954C281.76 361.812 282.567 362.526 283.566 363.096C284.564 363.648 285.66 364.099 286.855 364.45C288.051 364.801 289.252 365.085 290.459 365.302L295.98 366.361C298.201 366.75 300.348 367.323 302.419 368.08C304.509 368.837 306.394 369.832 308.074 371.066C309.773 372.3 311.147 373.826 312.195 375.646C313.243 377.466 313.837 379.633 313.975 382.148C314.162 385.552 313.457 388.598 311.859 391.285C310.261 393.954 307.856 396.108 304.646 397.747C301.453 399.366 297.531 400.305 292.879 400.563C288.36 400.814 284.397 400.333 280.992 399.118C277.606 397.903 274.903 396.004 272.884 393.423C270.883 390.841 269.701 387.625 269.338 383.775L279.691 383.2C279.954 385.215 280.67 386.863 281.841 388.145C283.011 389.427 284.494 390.35 286.289 390.914C288.103 391.477 290.107 391.698 292.3 391.576C294.588 391.449 296.574 390.997 298.257 390.22C299.959 389.424 301.267 388.384 302.183 387.1C303.098 385.797 303.519 384.313 303.447 382.648C303.345 381.136 302.832 379.913 301.908 378.978C300.983 378.024 299.717 377.259 298.111 376.685C296.523 376.09 294.675 375.586 292.566 375.172L285.863 373.837C281.011 372.874 277.127 371.222 274.21 368.88C271.311 366.518 269.747 363.257 269.519 359.097C269.331 355.674 270.093 352.625 271.804 349.95C273.535 347.274 275.969 345.138 279.106 343.541C282.242 341.925 285.842 341.004 289.908 340.778C294.031 340.549 297.682 341.067 300.862 342.332C304.06 343.576 306.618 345.416 308.534 347.852C310.45 350.268 311.526 353.11 311.763 356.379L301.636 356.942ZM343.162 353.183L343.598 361.125L318.551 362.517L318.115 354.575L343.162 353.183ZM323.725 343.792L333.994 343.222L336.24 384.126C336.316 385.506 336.582 386.554 337.039 387.268C337.513 387.963 338.108 388.423 338.822 388.649C339.536 388.874 340.319 388.964 341.17 388.916C341.813 388.881 342.396 388.801 342.92 388.677C343.464 388.552 343.875 388.444 344.154 388.352L346.326 396.284C345.788 396.503 345.014 396.755 344.006 397.039C343.016 397.321 341.794 397.522 340.34 397.641C337.772 397.859 335.435 397.6 333.327 396.864C331.218 396.109 329.508 394.857 328.198 393.109C326.907 391.359 326.196 389.123 326.066 386.398L323.725 343.792ZM380.906 376.408L379.519 351.162L389.787 350.591L392.18 394.162L382.224 394.715L381.799 386.971L381.345 386.997C380.496 389.491 378.988 391.576 376.823 393.251C374.677 394.926 371.968 395.854 368.697 396.036C365.841 396.195 363.282 395.702 361.019 394.557C358.773 393.392 356.969 391.623 355.606 389.252C354.242 386.862 353.464 383.927 353.273 380.448L351.749 352.705L362.017 352.135L363.454 378.288C363.606 381.049 364.483 383.201 366.085 384.743C367.687 386.286 369.717 386.988 372.175 386.852C373.688 386.768 375.134 386.317 376.511 385.501C377.889 384.685 378.992 383.523 379.819 382.017C380.665 380.49 381.027 378.621 380.906 376.408ZM418.95 393.442C415.527 393.633 412.415 392.923 409.614 391.315C406.814 389.707 404.537 387.272 402.783 384.012C401.03 380.752 400.022 376.73 399.759 371.946C399.493 367.105 400.063 362.976 401.468 359.559C402.892 356.123 404.918 353.478 407.548 351.624C410.177 349.752 413.164 348.723 416.511 348.537C419.064 348.395 421.187 348.713 422.88 349.492C424.572 350.251 425.934 351.209 426.965 352.366C427.994 353.504 428.803 354.588 429.391 355.617L429.816 355.593L428.623 333.865L438.919 333.293L442.11 391.387L432.012 391.948L431.635 385.083L431.011 385.118C430.54 386.207 429.836 387.374 428.899 388.621C427.961 389.85 426.693 390.925 425.093 391.849C423.494 392.772 421.446 393.304 418.95 393.442ZM421.352 384.858C423.526 384.737 425.347 384.048 426.815 382.791C428.281 381.514 429.353 379.795 430.031 377.633C430.709 375.47 430.97 372.98 430.816 370.163C430.661 367.345 430.129 364.918 429.221 362.882C428.331 360.845 427.089 359.292 425.494 358.224C423.918 357.154 422.023 356.681 419.811 356.804C417.523 356.931 415.645 357.633 414.179 358.91C412.713 360.186 411.65 361.895 410.99 364.038C410.33 366.18 410.074 368.603 410.222 371.307C410.372 374.03 410.893 376.439 411.786 378.533C412.696 380.607 413.951 382.216 415.551 383.36C417.168 384.484 419.101 384.983 421.352 384.858ZM460.332 406.763C458.933 406.841 457.631 406.799 456.427 406.639C455.243 406.496 454.294 406.302 453.579 406.057L455.522 397.925C457.04 398.277 458.384 398.411 459.556 398.327C460.727 398.243 461.737 397.817 462.587 397.049C463.456 396.299 464.157 395.084 464.691 393.404L465.441 391.001L447.198 347.4L458.091 346.795L469.939 379.142L470.393 379.117L478.656 345.652L489.576 345.045L474.815 394.861C474.128 397.214 473.159 399.25 471.907 400.97C470.655 402.708 469.08 404.067 467.18 405.045C465.3 406.041 463.017 406.614 460.332 406.763ZM526.802 386.68L515.569 387.304L532.83 328.073L545.821 327.351L569.492 384.307L558.259 384.931L540.207 339.613L539.753 339.639L526.802 386.68ZM525.92 363.881L556.554 362.178L557.019 370.632L526.384 372.334L525.92 363.881ZM595.259 400.174C591.571 400.379 588.376 400.054 585.674 399.199C582.973 398.363 580.772 397.157 579.074 395.582C577.375 394.008 576.158 392.226 575.423 390.237L584.547 387.482C585.009 388.31 585.661 389.118 586.501 389.906C587.342 390.713 588.449 391.353 589.821 391.827C591.214 392.318 592.941 392.507 595.002 392.392C597.914 392.231 600.286 391.387 602.118 389.863C603.952 388.357 604.78 385.997 604.603 382.782L604.15 374.528L603.639 374.556C603.168 375.645 602.452 376.775 601.492 377.947C600.551 379.119 599.27 380.129 597.647 380.978C596.044 381.826 593.994 382.319 591.497 382.458C588.15 382.644 585.072 382.028 582.263 380.61C579.471 379.171 577.186 376.927 575.406 373.877C573.644 370.808 572.633 366.899 572.372 362.153C572.109 357.368 572.682 353.287 574.089 349.908C575.515 346.509 577.543 343.883 580.172 342.03C582.801 340.158 585.789 339.128 589.136 338.942C591.689 338.801 593.811 339.119 595.504 339.897C597.215 340.656 598.596 341.613 599.645 342.769C600.694 343.905 601.503 344.989 602.072 346.02L602.639 345.988L602.243 338.783L612.37 338.22L614.802 382.5C615.007 386.225 614.287 389.357 612.644 391.896C611 394.434 608.67 396.394 605.654 397.775C602.638 399.157 599.173 399.957 595.259 400.174ZM593.92 374.243C596.095 374.122 597.919 373.489 599.392 372.345C600.866 371.201 601.945 369.614 602.63 367.584C603.315 365.554 603.582 363.15 603.429 360.37C603.278 357.628 602.749 355.248 601.842 353.231C600.953 351.213 599.712 349.679 598.118 348.629C596.542 347.56 594.647 347.087 592.435 347.21C590.147 347.337 588.27 348.039 586.803 349.315C585.337 350.592 584.273 352.292 583.612 354.415C582.95 356.519 582.691 358.886 582.836 361.514C582.982 364.181 583.498 366.495 584.384 368.456C585.287 370.398 586.535 371.884 588.128 372.914C589.739 373.925 591.67 374.368 593.92 374.243ZM637.872 381.388C635.111 381.542 632.598 381.188 630.331 380.328C628.083 379.448 626.262 378.069 624.869 376.193C623.495 374.316 622.73 371.949 622.573 369.094C622.438 366.635 622.78 364.577 623.599 362.919C624.419 361.261 625.587 359.906 627.103 358.855C628.62 357.803 630.348 356.977 632.287 356.376C634.245 355.755 636.277 355.272 638.382 354.927C640.92 354.521 642.978 354.169 644.555 353.873C646.131 353.558 647.266 353.153 647.96 352.659C648.671 352.146 649 351.397 648.946 350.414L648.936 350.244C648.819 348.107 648.095 346.487 646.763 345.385C645.432 344.283 643.575 343.798 641.192 343.931C638.677 344.07 636.712 344.73 635.297 345.908C633.902 347.086 632.989 348.436 632.561 349.959L622.899 349.13C623.51 346.44 624.636 344.158 626.278 342.284C627.919 340.391 629.973 338.93 632.439 337.901C634.904 336.854 637.659 336.245 640.704 336.076C642.803 335.96 644.906 336.089 647.013 336.465C649.12 336.841 651.065 337.549 652.849 338.588C654.631 339.608 656.095 341.054 657.241 342.925C658.406 344.795 659.068 347.177 659.227 350.07L660.828 379.231L650.957 379.779L650.628 373.794L650.288 373.813C649.73 375.058 648.913 376.241 647.837 377.363C646.778 378.465 645.416 379.385 643.749 380.123C642.1 380.84 640.142 381.262 637.872 381.388ZM640.124 373.695C642.185 373.58 643.95 373.074 645.418 372.177C646.885 371.261 647.988 370.099 648.726 368.693C649.484 367.285 649.818 365.777 649.73 364.17L649.448 359.036C649.141 359.318 648.606 359.594 647.843 359.864C647.099 360.133 646.259 360.379 645.323 360.602C644.387 360.825 643.459 361.028 642.54 361.212C641.62 361.396 640.823 361.554 640.147 361.686C638.627 361.98 637.275 362.396 636.091 362.936C634.906 363.476 633.988 364.191 633.335 365.081C632.681 365.952 632.39 367.049 632.463 368.373C632.567 370.264 633.335 371.654 634.769 372.541C636.202 373.429 637.987 373.814 640.124 373.695ZM671.153 378.657L668.76 335.086L679.028 334.515L681.421 378.086L671.153 378.657ZM673.583 328.615C671.956 328.706 670.528 328.244 669.296 327.232C668.063 326.2 667.405 324.918 667.321 323.386C667.235 321.836 667.749 320.489 668.863 319.346C669.975 318.184 671.344 317.558 672.97 317.467C674.616 317.376 676.045 317.846 677.259 318.879C678.49 319.892 679.149 321.174 679.234 322.724C679.318 324.256 678.804 325.603 677.692 326.765C676.598 327.907 675.228 328.524 673.583 328.615ZM700.846 351.399L702.249 376.928L691.98 377.499L689.587 333.928L699.402 333.383L699.808 340.787L700.319 340.758C701.187 338.263 702.678 336.236 704.793 334.677C706.927 333.116 709.62 332.246 712.872 332.065C715.879 331.898 718.533 332.395 720.835 333.557C723.156 334.718 724.998 336.484 726.362 338.855C727.744 341.226 728.521 344.151 728.693 347.632L730.217 375.374L719.949 375.945L718.512 349.791C718.352 346.879 717.471 344.642 715.867 343.081C714.283 341.518 712.167 340.811 709.52 340.958C707.723 341.058 706.147 341.544 704.791 342.416C703.454 343.268 702.428 344.454 701.715 345.973C701.021 347.491 700.731 349.3 700.846 351.399Z" fill="white"/>
<path d="M588.591 1046.27L551.867 939.049L573.088 937.869L597.11 1016.82L598.121 1016.77L614.679 935.558L633.985 934.485L659.393 1013.42L660.35 1013.36L675.576 932.173L696.796 930.994L672.039 1041.63L652.573 1042.71L626.569 967.493L625.718 967.541L608.057 1045.19L588.591 1046.27ZM732.234 990.269L734.863 1038.14L715.61 1039.21L709.627 930.281L728.455 929.234L730.713 970.348L731.67 970.294C733.332 965.579 736.093 961.78 739.953 958.897C743.847 955.978 748.915 954.345 755.155 953.998C760.828 953.683 765.839 954.596 770.189 956.737C774.539 958.878 777.992 962.172 780.548 966.618C783.139 971.062 784.616 976.581 784.978 983.176L787.836 1035.19L768.583 1036.26L765.889 987.225C765.587 981.729 763.934 977.535 760.93 974.643C757.96 971.714 753.939 970.39 748.869 970.672C745.465 970.861 742.457 971.776 739.844 973.415C737.264 975.016 735.288 977.242 733.916 980.093C732.578 982.941 732.018 986.333 732.234 990.269ZM843.714 1033.69C835.524 1034.14 828.357 1032.83 822.213 1029.76C816.103 1026.65 811.28 1022.05 807.744 1015.95C804.206 1009.81 802.203 1002.47 801.733 993.929C801.272 985.525 802.462 978.061 805.305 971.537C808.18 964.975 812.411 959.761 817.995 955.894C823.578 951.991 830.27 949.823 838.07 949.39C843.105 949.11 847.901 949.661 852.458 951.044C857.049 952.389 861.156 954.651 864.781 957.828C868.44 961.003 871.406 965.142 873.678 970.244C875.948 975.311 877.28 981.425 877.673 988.588L877.997 994.491L811.038 998.213L810.325 985.235L858.829 982.539C858.591 978.854 857.613 975.618 855.896 972.833C854.176 970.012 851.87 967.846 848.977 966.335C846.12 964.823 842.848 964.169 839.16 964.374C835.224 964.592 831.82 965.742 828.947 967.822C826.072 969.867 823.886 972.478 822.388 975.655C820.925 978.795 820.276 982.193 820.441 985.847L821.063 997.176C821.324 1001.93 822.417 1005.96 824.341 1009.26C826.264 1012.54 828.835 1014.99 832.054 1016.62C835.272 1018.22 838.972 1018.91 843.156 1018.67C845.957 1018.52 848.471 1017.99 850.697 1017.08C852.922 1016.14 854.825 1014.84 856.405 1013.19C857.986 1011.54 859.139 1009.53 859.863 1007.18L877.95 1008.2C877.077 1013.02 875.142 1017.29 872.146 1021.01C869.183 1024.7 865.291 1027.65 860.469 1029.88C855.646 1032.06 850.061 1033.34 843.714 1033.69ZM912.863 980.23L915.493 1028.1L896.24 1029.17L891.752 947.473L910.154 946.45L910.917 960.332L911.874 960.279C913.502 955.6 916.299 951.799 920.264 948.876C924.264 945.951 929.313 944.318 935.412 943.979C941.05 943.666 946.027 944.599 950.343 946.777C954.695 948.954 958.149 952.265 960.704 956.711C963.296 961.155 964.753 966.64 965.076 973.167L967.933 1025.18L948.68 1026.25L945.987 977.215C945.687 971.755 944.034 967.561 941.028 964.634C938.057 961.704 934.09 960.378 929.126 960.654C925.758 960.841 922.802 961.752 920.26 963.387C917.752 964.985 915.829 967.208 914.492 970.056C913.19 972.903 912.647 976.294 912.863 980.23ZM1041.51 1021.09L1013.94 940.682L1033.57 939.591L1051.09 996.234L1051.83 996.193L1063.35 937.935L1082.77 936.856L1100.58 993.163L1101.38 993.119L1112.39 935.21L1132.07 934.116L1113.42 1017.1L1093.37 1018.21L1075.02 963.855L1073.9 963.917L1061.62 1019.98L1041.51 1021.09ZM1173.6 1015.41C1168.42 1015.69 1163.71 1015.03 1159.46 1013.42C1155.24 1011.77 1151.83 1009.18 1149.22 1005.66C1146.64 1002.14 1145.2 997.708 1144.91 992.353C1144.66 987.744 1145.3 983.885 1146.83 980.776C1148.37 977.668 1150.56 975.128 1153.4 973.156C1156.25 971.184 1159.49 969.634 1163.13 968.508C1166.8 967.343 1170.6 966.438 1174.55 965.792C1179.31 965.029 1183.17 964.37 1186.13 963.815C1189.08 963.224 1191.21 962.465 1192.51 961.539C1193.84 960.576 1194.46 959.173 1194.36 957.329L1194.34 957.01C1194.12 953.003 1192.76 949.966 1190.27 947.9C1187.77 945.834 1184.29 944.925 1179.82 945.173C1175.11 945.435 1171.42 946.671 1168.77 948.881C1166.15 951.09 1164.44 953.621 1163.64 956.475L1145.52 954.922C1146.67 949.879 1148.78 945.6 1151.86 942.086C1154.94 938.536 1158.79 935.797 1163.41 933.868C1168.03 931.904 1173.2 930.763 1178.91 930.446C1182.84 930.227 1186.79 930.47 1190.74 931.176C1194.69 931.881 1198.33 933.207 1201.68 935.156C1205.02 937.068 1207.76 939.779 1209.91 943.287C1212.1 946.793 1213.34 951.259 1213.64 956.684L1216.64 1011.36L1198.13 1012.39L1197.51 1001.17L1196.88 1001.2C1195.83 1003.54 1194.3 1005.76 1192.28 1007.86C1190.3 1009.93 1187.74 1011.65 1184.62 1013.03C1181.52 1014.38 1177.85 1015.17 1173.6 1015.41ZM1177.82 1000.98C1181.68 1000.77 1184.99 999.817 1187.75 998.135C1190.5 996.417 1192.56 994.24 1193.95 991.602C1195.37 988.962 1196 986.135 1195.83 983.121L1195.3 973.495C1194.73 974.024 1193.72 974.543 1192.29 975.049C1190.9 975.553 1189.32 976.014 1187.57 976.432C1185.81 976.85 1184.07 977.231 1182.35 977.575C1180.62 977.92 1179.13 978.217 1177.86 978.465C1175.01 979.015 1172.48 979.796 1170.26 980.808C1168.04 981.821 1166.31 983.161 1165.09 984.83C1163.86 986.463 1163.32 988.521 1163.45 991.003C1163.65 994.548 1165.09 997.154 1167.78 998.818C1170.47 1000.48 1173.81 1001.2 1177.82 1000.98ZM1297.26 946.595L1279.82 949.485C1279.22 947.739 1278.26 946.121 1276.94 944.63C1275.65 943.137 1273.95 941.969 1271.84 941.126C1269.73 940.283 1267.18 939.944 1264.21 940.109C1260.2 940.332 1256.88 941.388 1254.24 943.277C1251.64 945.164 1250.44 947.49 1250.63 950.254C1250.72 952.631 1251.7 954.515 1253.55 955.906C1255.44 957.295 1258.49 958.353 1262.69 959.079L1276.79 961.283C1284.61 962.52 1290.5 964.843 1294.45 968.251C1298.44 971.656 1300.62 976.284 1300.98 982.132C1301.22 987.276 1299.97 991.898 1297.2 995.999C1294.47 1000.06 1290.55 1003.34 1285.42 1005.83C1280.29 1008.32 1274.33 1009.75 1267.52 1010.13C1257.52 1010.69 1249.36 1009.04 1243.03 1005.2C1236.7 1001.32 1232.74 995.652 1231.16 988.2L1249.83 985.348C1250.89 988.988 1252.85 991.671 1255.72 993.397C1258.59 995.123 1262.24 995.862 1266.67 995.616C1271.24 995.362 1274.86 994.218 1277.52 992.185C1280.22 990.15 1281.49 987.75 1281.34 984.984C1281.21 982.644 1280.2 980.762 1278.31 979.337C1276.45 977.911 1273.62 976.895 1269.82 976.288L1255.73 974.137C1247.8 972.942 1241.85 970.516 1237.88 966.86C1233.91 963.169 1231.78 958.343 1231.48 952.384C1231.17 947.351 1232.3 942.914 1234.86 939.073C1237.46 935.194 1241.18 932.106 1246.04 929.809C1250.92 927.475 1256.63 926.126 1263.15 925.764C1272.72 925.232 1280.37 926.852 1286.09 930.624C1291.85 934.394 1295.57 939.718 1297.26 946.595ZM435.352 1145.83L441.335 1254.76L421.604 1255.86L415.621 1146.93L435.352 1145.83ZM478.475 1204.68L481.104 1252.55L461.852 1253.62L457.364 1171.92L475.766 1170.9L476.529 1184.78L477.486 1184.73C479.114 1180.05 481.91 1176.25 485.875 1173.33C489.876 1170.4 494.925 1168.77 501.024 1168.43C506.661 1168.12 511.638 1169.05 515.955 1171.23C520.306 1173.41 523.76 1176.72 526.316 1181.16C528.908 1185.61 530.365 1191.09 530.688 1197.62L533.545 1249.64L514.292 1250.71L511.598 1201.67C511.298 1196.21 509.645 1192.01 506.639 1189.09C503.669 1186.16 499.702 1184.83 494.738 1185.11C491.369 1185.29 488.414 1186.2 485.872 1187.84C483.364 1189.44 481.441 1191.66 480.104 1194.51C478.802 1197.35 478.259 1200.75 478.475 1204.68ZM583.511 1248.3C577.094 1248.66 571.259 1247.33 566.008 1244.31C560.756 1241.29 556.487 1236.73 553.199 1230.62C549.911 1224.5 548.021 1216.96 547.528 1207.99C547.03 1198.92 548.098 1191.17 550.734 1184.77C553.403 1178.32 557.203 1173.36 562.133 1169.89C567.062 1166.38 572.664 1164.45 578.94 1164.1C583.726 1163.83 587.707 1164.43 590.881 1165.89C594.053 1167.32 596.606 1169.11 598.539 1171.28C600.47 1173.41 601.987 1175.45 603.088 1177.38L603.886 1177.33L601.648 1136.59L620.954 1135.52L626.938 1244.44L608.004 1245.5L607.297 1232.63L606.127 1232.69C605.243 1234.73 603.923 1236.92 602.166 1239.26C600.408 1241.56 598.029 1243.58 595.03 1245.31C592.031 1247.04 588.191 1248.04 583.511 1248.3ZM588.015 1232.2C592.093 1231.98 595.507 1230.68 598.258 1228.33C601.008 1225.93 603.018 1222.71 604.289 1218.66C605.56 1214.6 606.05 1209.93 605.76 1204.65C605.47 1199.37 604.473 1194.82 602.77 1191C601.102 1187.18 598.772 1184.27 595.782 1182.26C592.826 1180.26 589.274 1179.37 585.126 1179.6C580.836 1179.84 577.316 1181.16 574.567 1183.55C571.817 1185.94 569.824 1189.15 568.586 1193.16C567.349 1197.18 566.869 1201.72 567.148 1206.8C567.428 1211.9 568.405 1216.42 570.079 1220.34C571.787 1224.23 574.139 1227.25 577.138 1229.39C580.17 1231.5 583.796 1232.44 588.015 1232.2ZM647.454 1243.3L642.966 1161.61L662.219 1160.54L666.707 1242.23L647.454 1243.3ZM652.009 1149.48C648.96 1149.65 646.281 1148.78 643.971 1146.88C641.66 1144.95 640.425 1142.54 640.268 1139.67C640.108 1136.76 641.072 1134.24 643.159 1132.1C645.244 1129.92 647.812 1128.74 650.861 1128.57C653.946 1128.4 656.626 1129.28 658.902 1131.22C661.211 1133.12 662.446 1135.52 662.605 1138.43C662.763 1141.3 661.799 1143.83 659.714 1146.01C657.662 1148.15 655.094 1149.3 652.009 1149.48ZM710.103 1241.48C704.926 1241.76 700.213 1241.1 695.964 1239.49C691.747 1237.84 688.333 1235.25 685.722 1231.73C683.146 1228.21 681.71 1223.78 681.416 1218.42C681.163 1213.81 681.805 1209.95 683.341 1206.85C684.877 1203.74 687.067 1201.2 689.911 1199.23C692.755 1197.25 695.995 1195.7 699.632 1194.58C703.302 1193.41 707.111 1192.51 711.059 1191.86C715.818 1191.1 719.676 1190.44 722.633 1189.88C725.588 1189.29 727.716 1188.53 729.017 1187.61C730.351 1186.65 730.967 1185.24 730.866 1183.4L730.848 1183.08C730.628 1179.07 729.27 1176.04 726.774 1173.97C724.277 1171.9 720.795 1170.99 716.328 1171.24C711.612 1171.5 707.928 1172.74 705.275 1174.95C702.658 1177.16 700.948 1179.69 700.144 1182.54L682.028 1180.99C683.173 1175.95 685.285 1171.67 688.364 1168.16C691.441 1164.61 695.292 1161.87 699.916 1159.94C704.538 1157.97 709.704 1156.83 715.412 1156.52C719.348 1156.3 723.291 1156.54 727.242 1157.25C731.193 1157.95 734.84 1159.28 738.184 1161.23C741.525 1163.14 744.27 1165.85 746.419 1169.36C748.603 1172.86 749.844 1177.33 750.142 1182.75L753.146 1237.43L734.637 1238.46L734.021 1227.24L733.383 1227.27C732.337 1229.61 730.805 1231.82 728.787 1233.93C726.802 1236 724.247 1237.72 721.122 1239.1C718.031 1240.45 714.358 1241.24 710.103 1241.48ZM714.325 1227.05C718.19 1226.84 721.499 1225.89 724.252 1224.2C727.003 1222.49 729.07 1220.31 730.455 1217.67C731.874 1215.03 732.502 1212.2 732.336 1209.19L731.807 1199.56C731.232 1200.09 730.229 1200.61 728.798 1201.12C727.404 1201.62 725.828 1202.08 724.073 1202.5C722.318 1202.92 720.578 1203.3 718.855 1203.65C717.131 1203.99 715.636 1204.29 714.369 1204.53C711.518 1205.08 708.983 1205.87 706.762 1206.88C704.542 1207.89 702.819 1209.23 701.595 1210.9C700.369 1212.53 699.824 1214.59 699.96 1217.07C700.155 1220.62 701.596 1223.22 704.284 1224.89C706.972 1226.55 710.319 1227.27 714.325 1227.05ZM879.403 1156.04C878.359 1153.22 876.994 1150.72 875.309 1148.54C873.658 1146.32 871.706 1144.45 869.454 1142.94C867.237 1141.43 864.723 1140.34 861.913 1139.68C859.1 1138.98 856.063 1138.72 852.801 1138.9C846.951 1139.23 841.82 1140.99 837.407 1144.19C832.995 1147.38 829.634 1151.91 827.324 1157.76C825.047 1163.58 824.132 1170.57 824.58 1178.72C825.032 1186.95 826.709 1193.84 829.611 1199.41C832.513 1204.97 836.35 1209.12 841.123 1211.84C845.894 1214.53 851.329 1215.7 857.428 1215.36C862.959 1215.05 867.687 1213.73 871.612 1211.37C875.573 1209.02 878.545 1205.83 880.529 1201.81C882.512 1197.75 883.358 1193.08 883.067 1187.8L887.573 1188.24L858.002 1189.88L857.155 1174.46L901.352 1172L902.07 1185.09C902.582 1194.41 901.04 1202.59 897.443 1209.62C893.846 1216.65 888.674 1222.2 881.927 1226.27C875.178 1230.31 867.3 1232.58 858.294 1233.08C848.26 1233.64 839.325 1231.88 831.49 1227.79C823.689 1223.67 817.432 1217.57 812.719 1209.47C808.04 1201.34 805.385 1191.53 804.754 1180.04C804.271 1171.24 805.081 1163.32 807.183 1156.27C809.32 1149.22 812.508 1143.15 816.746 1138.08C820.983 1132.97 826.063 1128.99 831.988 1126.14C837.911 1123.25 844.436 1121.6 851.562 1121.21C857.59 1120.87 863.259 1121.45 868.568 1122.93C873.876 1124.38 878.639 1126.6 882.858 1129.6C887.113 1132.6 890.674 1136.25 893.541 1140.53C896.409 1144.82 898.397 1149.62 899.507 1154.93L879.403 1156.04ZM946.311 1228.35C941.134 1228.64 936.421 1227.97 932.171 1226.36C927.955 1224.71 924.541 1222.12 921.929 1218.61C919.353 1215.09 917.918 1210.65 917.624 1205.29C917.371 1200.69 918.012 1196.83 919.549 1193.72C921.085 1190.61 923.275 1188.07 926.119 1186.1C928.962 1184.12 932.202 1182.58 935.839 1181.45C939.51 1180.28 943.319 1179.38 947.267 1178.73C952.026 1177.97 955.884 1177.31 958.841 1176.76C961.796 1176.16 963.924 1175.41 965.224 1174.48C966.558 1173.52 967.175 1172.11 967.074 1170.27L967.056 1169.95C966.836 1165.94 965.478 1162.91 962.981 1160.84C960.485 1158.77 957.003 1157.87 952.536 1158.11C947.82 1158.38 944.136 1159.61 941.483 1161.82C938.866 1164.03 937.155 1166.56 936.352 1169.42L918.235 1167.86C919.381 1162.82 921.493 1158.54 924.572 1155.03C927.649 1151.48 931.5 1148.74 936.124 1146.81C940.746 1144.85 945.911 1143.7 951.62 1143.39C955.556 1143.17 959.499 1143.41 963.45 1144.12C967.401 1144.82 971.048 1146.15 974.391 1148.1C977.733 1150.01 980.478 1152.72 982.627 1156.23C984.811 1159.73 986.052 1164.2 986.35 1169.63L989.353 1224.3L970.845 1225.33L970.228 1214.11L969.59 1214.14C968.545 1216.48 967.013 1218.7 964.995 1220.8C963.01 1222.87 960.455 1224.59 957.33 1225.97C954.239 1227.32 950.566 1228.11 946.311 1228.35ZM950.533 1213.92C954.398 1213.71 957.707 1212.76 960.459 1211.08C963.21 1209.36 965.278 1207.18 966.662 1204.54C968.082 1201.9 968.709 1199.08 968.544 1196.06L968.015 1186.44C967.439 1186.97 966.437 1187.48 965.006 1187.99C963.611 1188.49 962.036 1188.96 960.281 1189.37C958.526 1189.79 956.786 1190.17 955.062 1190.52C953.339 1190.86 951.843 1191.16 950.577 1191.41C947.726 1191.96 945.191 1192.74 942.97 1193.75C940.749 1194.76 939.027 1196.1 937.803 1197.77C936.577 1199.4 936.032 1201.46 936.168 1203.94C936.363 1207.49 937.804 1210.09 940.492 1211.76C943.179 1213.42 946.526 1214.14 950.533 1213.92ZM1045.02 1139.26L1045.84 1154.16L998.874 1156.77L998.056 1141.87L1045.02 1139.26ZM1008.57 1121.66L1027.83 1120.59L1032.04 1197.28C1032.18 1199.87 1032.68 1201.83 1033.54 1203.17C1034.43 1204.48 1035.54 1205.34 1036.88 1205.76C1038.22 1206.19 1039.69 1206.35 1041.28 1206.26C1042.49 1206.2 1043.58 1206.05 1044.57 1205.81C1045.58 1205.58 1046.36 1205.38 1046.88 1205.21L1050.95 1220.08C1049.94 1220.49 1048.49 1220.96 1046.6 1221.49C1044.74 1222.02 1042.45 1222.4 1039.73 1222.62C1034.91 1223.03 1030.53 1222.55 1026.58 1221.17C1022.62 1219.75 1019.42 1217.4 1016.96 1214.12C1014.54 1210.84 1013.21 1206.65 1012.96 1201.54L1008.57 1121.66ZM1100.98 1219.7C1092.79 1220.15 1085.63 1218.84 1079.48 1215.77C1073.37 1212.66 1068.55 1208.06 1065.01 1201.96C1061.47 1195.82 1059.47 1188.48 1059 1179.94C1058.54 1171.53 1059.73 1164.07 1062.57 1157.55C1065.45 1150.98 1069.68 1145.77 1075.26 1141.9C1080.85 1138 1087.54 1135.83 1095.34 1135.4C1100.37 1135.12 1105.17 1135.67 1109.73 1137.05C1114.32 1138.4 1118.43 1140.66 1122.05 1143.84C1125.71 1147.01 1128.68 1151.15 1130.95 1156.25C1133.22 1161.32 1134.55 1167.43 1134.94 1174.6L1135.27 1180.5L1068.31 1184.22L1067.59 1171.24L1116.1 1168.55C1115.86 1164.86 1114.88 1161.63 1113.16 1158.84C1111.44 1156.02 1109.14 1153.86 1106.25 1152.34C1103.39 1150.83 1100.12 1150.18 1096.43 1150.38C1092.49 1150.6 1089.09 1151.75 1086.22 1153.83C1083.34 1155.88 1081.15 1158.49 1079.66 1161.67C1078.19 1164.81 1077.54 1168.2 1077.71 1171.86L1078.33 1183.19C1078.59 1187.94 1079.69 1191.97 1081.61 1195.27C1083.53 1198.55 1086.1 1201 1089.32 1202.63C1092.54 1204.23 1096.24 1204.92 1100.43 1204.68C1103.23 1204.53 1105.74 1204 1107.97 1203.09C1110.19 1202.15 1112.09 1200.85 1113.67 1199.2C1115.25 1197.55 1116.41 1195.54 1117.13 1193.19L1135.22 1194.21C1134.35 1199.03 1132.41 1203.3 1129.41 1207.02C1126.45 1210.71 1122.56 1213.66 1117.74 1215.89C1112.91 1218.07 1107.33 1219.34 1100.98 1219.7ZM1207.52 1212.18L1179.95 1131.76L1199.57 1130.67L1217.09 1187.32L1217.83 1187.28L1229.36 1129.02L1248.77 1127.94L1266.59 1184.25L1267.38 1184.2L1278.39 1126.29L1298.07 1125.2L1279.42 1208.18L1259.37 1209.29L1241.02 1154.94L1239.91 1155L1227.62 1211.06L1207.52 1212.18ZM1339.6 1206.49C1334.42 1206.78 1329.71 1206.11 1325.46 1204.5C1321.24 1202.85 1317.83 1200.27 1315.22 1196.75C1312.64 1193.23 1311.21 1188.79 1310.91 1183.44C1310.66 1178.83 1311.3 1174.97 1312.84 1171.86C1314.37 1168.75 1316.56 1166.21 1319.41 1164.24C1322.25 1162.27 1325.49 1160.72 1329.13 1159.59C1332.8 1158.43 1336.61 1157.52 1340.56 1156.87C1345.32 1156.11 1349.17 1155.45 1352.13 1154.9C1355.09 1154.31 1357.21 1153.55 1358.51 1152.62C1359.85 1151.66 1360.46 1150.25 1360.36 1148.41L1360.35 1148.09C1360.13 1144.09 1358.77 1141.05 1356.27 1138.98C1353.77 1136.92 1350.29 1136.01 1345.83 1136.26C1341.11 1136.52 1337.43 1137.75 1334.77 1139.96C1332.16 1142.17 1330.44 1144.7 1329.64 1147.56L1311.52 1146C1312.67 1140.96 1314.78 1136.68 1317.86 1133.17C1320.94 1129.62 1324.79 1126.88 1329.41 1124.95C1334.04 1122.99 1339.2 1121.85 1344.91 1121.53C1348.85 1121.31 1352.79 1121.55 1356.74 1122.26C1360.69 1122.96 1364.34 1124.29 1367.68 1126.24C1371.02 1128.15 1373.77 1130.86 1375.92 1134.37C1378.1 1137.88 1379.34 1142.34 1379.64 1147.77L1382.64 1202.44L1364.13 1203.47L1363.52 1192.25L1362.88 1192.28C1361.83 1194.62 1360.3 1196.84 1358.28 1198.94C1356.3 1201.01 1353.74 1202.73 1350.62 1204.12C1347.53 1205.46 1343.86 1206.25 1339.6 1206.49ZM1343.82 1192.06C1347.69 1191.85 1351 1190.9 1353.75 1189.22C1356.5 1187.5 1358.57 1185.32 1359.95 1182.68C1361.37 1180.04 1362 1177.22 1361.83 1174.2L1361.3 1164.58C1360.73 1165.11 1359.73 1165.62 1358.3 1166.13C1356.9 1166.64 1355.33 1167.1 1353.57 1167.51C1351.82 1167.93 1350.08 1168.31 1348.35 1168.66C1346.63 1169 1345.13 1169.3 1343.87 1169.55C1341.02 1170.1 1338.48 1170.88 1336.26 1171.89C1334.04 1172.9 1332.32 1174.24 1331.09 1175.91C1329.87 1177.55 1329.32 1179.6 1329.46 1182.08C1329.65 1185.63 1331.09 1188.24 1333.78 1189.9C1336.47 1191.56 1339.82 1192.29 1343.82 1192.06ZM1463.27 1137.68L1445.82 1140.57C1445.23 1138.82 1444.27 1137.2 1442.94 1135.71C1441.65 1134.22 1439.95 1133.05 1437.84 1132.21C1435.73 1131.36 1433.19 1131.03 1430.21 1131.19C1426.2 1131.41 1422.88 1132.47 1420.25 1134.36C1417.65 1136.25 1416.44 1138.57 1416.63 1141.34C1416.72 1143.71 1417.7 1145.6 1419.55 1146.99C1421.44 1148.38 1424.49 1149.43 1428.69 1150.16L1442.79 1152.37C1450.61 1153.6 1456.5 1155.92 1460.46 1159.33C1464.45 1162.74 1466.62 1167.37 1466.98 1173.21C1467.23 1178.36 1465.97 1182.98 1463.21 1187.08C1460.48 1191.15 1456.55 1194.42 1451.42 1196.91C1446.3 1199.4 1440.33 1200.84 1433.52 1201.22C1423.52 1201.77 1415.36 1200.13 1409.03 1196.28C1402.7 1192.4 1398.74 1186.73 1397.16 1179.28L1415.84 1176.43C1416.89 1180.07 1418.85 1182.75 1421.72 1184.48C1424.59 1186.2 1428.24 1186.94 1432.67 1186.7C1437.25 1186.44 1440.86 1185.3 1443.53 1183.27C1446.22 1181.23 1447.5 1178.83 1447.34 1176.07C1447.22 1173.73 1446.21 1171.84 1444.31 1170.42C1442.46 1168.99 1439.63 1167.98 1435.82 1167.37L1421.73 1165.22C1413.8 1164.02 1407.86 1161.6 1403.88 1157.94C1399.91 1154.25 1397.78 1149.43 1397.49 1143.47C1397.18 1138.43 1398.3 1134 1400.86 1130.16C1403.46 1126.28 1407.19 1123.19 1412.04 1120.89C1416.93 1118.56 1422.63 1117.21 1429.15 1116.85C1438.73 1116.31 1446.37 1117.93 1452.09 1121.71C1457.85 1125.48 1461.57 1130.8 1463.27 1137.68ZM763.337 1437.17L757.354 1328.25L776.607 1327.18L778.845 1367.92L779.642 1367.87C780.526 1365.83 781.811 1363.64 783.496 1361.31C785.18 1358.94 787.52 1356.87 790.517 1355.1C793.513 1353.3 797.403 1352.27 802.19 1352C808.501 1351.65 814.281 1352.95 819.528 1355.89C824.809 1358.8 829.111 1363.31 832.434 1369.42C835.791 1375.49 837.719 1383.07 838.217 1392.14C838.71 1401.12 837.657 1408.82 835.059 1415.26C832.461 1421.7 828.717 1426.71 823.828 1430.29C818.939 1433.87 813.286 1435.84 806.868 1436.19C802.188 1436.45 798.262 1435.89 795.092 1434.5C791.921 1433.11 789.336 1431.37 787.336 1429.28C785.37 1427.14 783.818 1425.11 782.681 1423.19L781.564 1423.25L782.271 1436.12L763.337 1437.17ZM779.974 1395.28C780.264 1400.56 781.263 1405.14 782.97 1409.03C784.713 1412.92 787.064 1415.9 790.023 1417.98C793.016 1420.02 796.551 1420.92 800.629 1420.69C804.883 1420.46 808.384 1419.13 811.132 1416.7C813.877 1414.23 815.868 1410.97 817.103 1406.92C818.372 1402.83 818.867 1398.23 818.586 1393.13C818.308 1388.06 817.333 1383.6 815.664 1379.74C813.994 1375.89 811.661 1372.92 808.667 1370.85C805.672 1368.77 802.029 1367.85 797.739 1368.09C793.626 1368.32 790.193 1369.6 787.44 1371.92C784.687 1374.24 782.673 1377.4 781.398 1381.38C780.158 1385.36 779.684 1389.99 779.974 1395.28ZM907.004 1394.72L904.403 1347.39L923.656 1346.32L928.144 1428.01L909.476 1429.05L908.678 1414.53L907.827 1414.58C906.235 1419.25 903.409 1423.16 899.349 1426.3C895.325 1429.44 890.246 1431.19 884.112 1431.53C878.758 1431.82 873.959 1430.9 869.716 1428.75C865.506 1426.57 862.123 1423.25 859.567 1418.81C857.009 1414.32 855.551 1408.82 855.193 1402.3L852.335 1350.28L871.588 1349.21L874.282 1398.25C874.566 1403.43 876.211 1407.46 879.215 1410.35C882.219 1413.24 886.025 1414.56 890.635 1414.31C893.471 1414.15 896.181 1413.3 898.764 1411.77C901.348 1410.24 903.415 1408.06 904.967 1405.24C906.553 1402.38 907.232 1398.87 907.004 1394.72ZM947.942 1426.91L943.455 1345.22L962.708 1344.15L967.195 1425.84L947.942 1426.91ZM952.497 1333.08C949.448 1333.25 946.769 1332.39 944.459 1330.49C942.148 1328.56 940.914 1326.15 940.756 1323.28C940.596 1320.37 941.56 1317.85 943.647 1315.7C945.733 1313.53 948.3 1312.35 951.349 1312.18C954.434 1312.01 957.114 1312.89 959.39 1314.83C961.699 1316.73 962.934 1319.13 963.094 1322.04C963.251 1324.91 962.288 1327.44 960.202 1329.61C958.15 1331.76 955.582 1332.91 952.497 1333.08ZM1000.26 1314.74L1006.25 1423.67L986.993 1424.74L981.01 1315.81L1000.26 1314.74ZM1062.35 1338.61L1063.17 1353.5L1016.21 1356.11L1015.39 1341.22L1062.35 1338.61ZM1025.91 1321L1045.16 1319.93L1049.37 1396.63C1049.51 1399.22 1050.01 1401.18 1050.87 1402.52C1051.76 1403.82 1052.87 1404.68 1054.21 1405.11C1055.55 1405.53 1057.02 1405.7 1058.61 1405.61C1059.82 1405.54 1060.91 1405.39 1061.9 1405.16C1062.92 1404.93 1063.69 1404.72 1064.21 1404.55L1068.28 1419.42C1067.27 1419.83 1065.82 1420.31 1063.93 1420.84C1062.08 1421.37 1059.79 1421.74 1057.06 1421.97C1052.24 1422.38 1047.86 1421.89 1043.91 1420.51C1039.95 1419.09 1036.75 1416.75 1034.29 1413.47C1031.87 1410.19 1030.54 1406 1030.29 1400.89L1025.91 1321ZM1099.58 1386.37L1099.51 1384.98C1099.19 1378.56 1099.51 1373.43 1100.47 1369.57C1101.47 1365.71 1103 1362.56 1105.08 1360.13C1107.15 1357.67 1109.71 1355.38 1112.75 1353.25C1114.84 1351.78 1116.69 1350.21 1118.31 1348.52C1119.96 1346.79 1121.22 1344.9 1122.11 1342.86C1122.99 1340.79 1123.36 1338.51 1123.22 1336.03C1123.07 1333.22 1122.28 1330.83 1120.86 1328.85C1119.43 1326.86 1117.57 1325.37 1115.27 1324.36C1113.01 1323.34 1110.52 1322.91 1107.79 1323.07C1105.27 1323.21 1102.91 1323.89 1100.7 1325.11C1098.52 1326.3 1096.75 1328.04 1095.38 1330.32C1094.05 1332.56 1093.38 1335.35 1093.39 1338.7L1074.46 1339.75C1074.26 1333 1075.58 1327.27 1078.42 1322.56C1081.29 1317.85 1085.22 1314.22 1090.2 1311.67C1095.21 1309.11 1100.82 1307.66 1107.03 1307.32C1113.8 1306.94 1119.82 1307.8 1125.1 1309.89C1130.4 1311.97 1134.61 1315.14 1137.73 1319.37C1140.87 1323.57 1142.61 1328.67 1142.94 1334.66C1143.16 1338.7 1142.71 1342.36 1141.57 1345.62C1140.47 1348.88 1138.8 1351.82 1136.56 1354.44C1134.32 1357.05 1131.62 1359.42 1128.47 1361.55C1125.69 1363.49 1123.44 1365.46 1121.7 1367.48C1119.99 1369.49 1118.77 1371.82 1118.03 1374.46C1117.32 1377.06 1117.05 1380.24 1117.22 1384L1117.29 1385.38L1099.58 1386.37ZM1110.66 1419.04C1107.47 1419.22 1104.66 1418.24 1102.23 1416.1C1099.8 1413.95 1098.49 1411.25 1098.32 1407.99C1098.14 1404.8 1099.14 1402.01 1101.32 1399.61C1103.5 1397.21 1106.19 1395.92 1109.38 1395.75C1112.54 1395.57 1115.33 1396.55 1117.76 1398.69C1120.22 1400.83 1121.54 1403.5 1121.72 1406.69C1121.84 1408.85 1121.39 1410.85 1120.39 1412.69C1119.43 1414.52 1118.09 1416.01 1116.37 1417.18C1114.69 1418.3 1112.79 1418.92 1110.66 1419.04Z" fill="#706A6A"/>
</svg>
