<svg xmlns="http://www.w3.org/2000/svg" xmlns:xlink="http://www.w3.org/1999/xlink" zoomAndPan="magnify" preserveAspectRatio="xMidYMid meet" version="1.0" viewBox="62.18 120.64 285.88 141.83"><defs><g/><clipPath id="71f188af85"><path d="M 187.503906 146.339844 L 348.003906 146.339844 L 348.003906 261.839844 L 187.503906 261.839844 Z M 187.503906 146.339844 " clip-rule="nonzero"/></clipPath></defs><path fill="#21559b" d="M 95.875 171.675781 C 96.644531 169.875 97.539062 168.140625 98.5625 166.46875 C 99.585938 164.800781 100.722656 163.210938 101.976562 161.710938 C 103.230469 160.207031 104.589844 158.800781 106.050781 157.496094 C 107.511719 156.191406 109.058594 155 110.691406 153.921875 C 112.324219 152.84375 114.03125 151.890625 115.804688 151.0625 C 117.578125 150.230469 119.402344 149.535156 121.277344 148.972656 C 123.152344 148.410156 125.058594 147.988281 126.996094 147.703125 C 128.933594 147.421875 130.882812 147.28125 132.839844 147.28125 L 183.617188 147.28125 C 182.308594 145.5625 180.917969 143.910156 179.449219 142.324219 C 177.980469 140.738281 176.441406 139.226562 174.828125 137.785156 C 173.210938 136.347656 171.535156 134.988281 169.789062 133.710938 C 168.046875 132.433594 166.246094 131.242188 164.386719 130.136719 C 162.53125 129.035156 160.625 128.019531 158.667969 127.097656 C 156.714844 126.175781 154.71875 125.351562 152.683594 124.617188 C 150.648438 123.886719 148.585938 123.257812 146.488281 122.722656 C 144.394531 122.191406 142.277344 121.757812 140.144531 121.429688 C 138.007812 121.101562 135.859375 120.871094 133.699219 120.75 C 131.542969 120.625 129.382812 120.605469 127.222656 120.6875 C 125.0625 120.769531 122.914062 120.957031 120.769531 121.246094 C 118.628906 121.535156 116.503906 121.925781 114.398438 122.417969 C 112.296875 122.910156 110.21875 123.503906 108.171875 124.195312 C 106.121094 124.886719 104.113281 125.675781 102.140625 126.558594 C 100.167969 127.445312 98.242188 128.421875 96.363281 129.492188 C 94.484375 130.558594 92.660156 131.714844 90.894531 132.960938 C 89.125 134.203125 87.421875 135.53125 85.78125 136.9375 C 84.140625 138.34375 82.570312 139.828125 81.074219 141.386719 C 79.574219 142.945312 78.152344 144.570312 76.8125 146.265625 C 75.46875 147.957031 74.210938 149.714844 73.035156 151.527344 C 71.859375 153.34375 70.777344 155.210938 69.78125 157.128906 C 68.785156 159.046875 67.882812 161.007812 67.078125 163.015625 C 66.269531 165.019531 65.558594 167.058594 64.949219 169.132812 C 64.335938 171.207031 63.824219 173.304688 63.414062 175.425781 C 63.003906 177.546875 62.695312 179.683594 62.492188 181.835938 C 62.285156 183.988281 62.183594 186.144531 62.183594 188.308594 C 62.183594 190.46875 62.289062 192.625 62.496094 194.777344 C 62.707031 196.929688 63.015625 199.066406 63.429688 201.1875 C 63.839844 203.308594 64.355469 205.40625 64.96875 207.480469 C 65.582031 209.550781 66.292969 211.589844 67.101562 213.59375 C 67.914062 215.601562 68.816406 217.5625 69.8125 219.480469 C 70.8125 221.394531 71.898438 223.261719 73.074219 225.074219 Z M 95.875 171.675781 " fill-opacity="1" fill-rule="nonzero"/><path fill="#21559b" d="M 172.660156 173.269531 L 131.441406 173.269531 C 130.253906 173.265625 129.09375 173.4375 127.957031 173.777344 C 126.824219 174.121094 125.761719 174.617188 124.769531 175.269531 C 123.78125 175.921875 122.90625 176.703125 122.148438 177.613281 C 121.386719 178.523438 120.773438 179.523438 120.308594 180.617188 L 114.832031 193.476562 L 181.089844 193.476562 C 180.476562 194.914062 179.761719 196.300781 178.945312 197.632812 C 178.128906 198.964844 177.21875 200.234375 176.21875 201.433594 C 175.214844 202.632812 174.132812 203.753906 172.964844 204.796875 C 171.800781 205.839844 170.566406 206.789062 169.261719 207.652344 C 167.957031 208.511719 166.597656 209.277344 165.179688 209.9375 C 163.765625 210.601562 162.308594 211.15625 160.8125 211.605469 C 159.3125 212.054688 157.792969 212.394531 156.246094 212.621094 C 154.699219 212.851562 153.144531 212.964844 151.578125 212.964844 L 115.105469 212.964844 C 113.828125 212.964844 112.578125 213.148438 111.355469 213.515625 C 110.132812 213.882812 108.988281 214.417969 107.921875 215.121094 C 106.855469 215.824219 105.914062 216.667969 105.097656 217.648438 C 104.277344 218.628906 103.617188 219.707031 103.117188 220.882812 L 92.867188 244.90625 C 94.335938 245.863281 95.839844 246.761719 97.378906 247.601562 C 98.917969 248.441406 100.488281 249.222656 102.089844 249.941406 C 103.6875 250.660156 105.3125 251.3125 106.964844 251.90625 C 108.617188 252.496094 110.285156 253.023438 111.980469 253.488281 C 113.671875 253.949219 115.378906 254.34375 117.101562 254.671875 C 118.824219 255.003906 120.554688 255.265625 122.296875 255.460938 C 124.042969 255.652344 125.789062 255.78125 127.542969 255.839844 C 129.292969 255.898438 131.046875 255.886719 132.800781 255.808594 C 134.550781 255.730469 136.296875 255.585938 138.039062 255.371094 C 139.777344 255.160156 141.507812 254.878906 143.226562 254.53125 C 144.945312 254.183594 146.648438 253.769531 148.335938 253.289062 C 150.023438 252.808594 151.6875 252.261719 153.332031 251.652344 C 154.976562 251.042969 156.59375 250.367188 158.1875 249.632812 C 159.777344 248.898438 161.339844 248.101562 162.867188 247.242188 C 164.398438 246.386719 165.894531 245.472656 167.351562 244.496094 C 168.8125 243.523438 170.230469 242.496094 171.609375 241.410156 C 172.988281 240.328125 174.320312 239.191406 175.613281 238.003906 C 176.902344 236.816406 178.144531 235.582031 179.339844 234.296875 C 180.535156 233.011719 181.675781 231.683594 182.769531 230.3125 C 183.859375 228.9375 184.894531 227.523438 185.875 226.070312 C 186.855469 224.617188 187.78125 223.128906 188.644531 221.601562 C 189.511719 220.078125 190.316406 218.519531 191.058594 216.933594 C 191.804688 215.34375 192.484375 213.730469 193.105469 212.089844 C 193.722656 210.449219 194.277344 208.785156 194.765625 207.101562 C 195.253906 205.417969 195.679688 203.71875 196.035156 202 C 196.394531 200.28125 196.683594 198.554688 196.90625 196.816406 C 197.128906 195.074219 197.285156 193.332031 197.371094 191.578125 C 197.457031 189.828125 197.476562 188.074219 197.425781 186.320312 C 197.378906 184.570312 197.261719 182.820312 197.074219 181.078125 C 196.890625 179.332031 196.636719 177.597656 196.316406 175.875 C 195.996094 174.148438 195.609375 172.441406 195.15625 170.746094 C 194.703125 169.050781 194.1875 167.378906 193.601562 165.722656 C 192.140625 166.933594 190.589844 168.011719 188.941406 168.953125 C 187.292969 169.894531 185.578125 170.6875 183.792969 171.328125 C 182.007812 171.972656 180.179688 172.457031 178.308594 172.78125 C 176.441406 173.109375 174.558594 173.269531 172.660156 173.269531 Z M 172.660156 173.269531 " fill-opacity="1" fill-rule="nonzero"/><path fill="#efb300" d="M 95.875 171.675781 C 96.644531 169.875 97.539062 168.140625 98.5625 166.46875 C 99.585938 164.800781 100.722656 163.210938 101.976562 161.710938 C 103.230469 160.207031 104.589844 158.800781 106.050781 157.496094 C 107.511719 156.191406 109.058594 155 110.691406 153.921875 C 112.324219 152.84375 114.03125 151.890625 115.804688 151.0625 C 117.578125 150.230469 119.402344 149.535156 121.277344 148.972656 C 123.152344 148.410156 125.058594 147.988281 126.996094 147.703125 C 128.933594 147.421875 130.882812 147.28125 132.839844 147.28125 L 183.609375 147.28125 C 182.296875 145.5625 180.910156 143.910156 179.441406 142.324219 C 177.972656 140.738281 176.429688 139.226562 174.816406 137.789062 C 173.203125 136.351562 171.527344 134.992188 169.78125 133.71875 C 168.039062 132.441406 166.238281 131.25 164.382812 130.144531 C 162.523438 129.039062 160.617188 128.027344 158.664062 127.105469 C 156.707031 126.183594 154.714844 125.359375 152.679688 124.628906 C 150.644531 123.898438 148.582031 123.265625 146.488281 122.734375 C 144.390625 122.199219 142.277344 121.769531 140.140625 121.441406 C 138.003906 121.109375 135.859375 120.882812 133.703125 120.757812 C 131.542969 120.636719 129.386719 120.613281 127.226562 120.699219 C 125.066406 120.78125 122.914062 120.96875 120.773438 121.257812 C 118.632812 121.546875 116.507812 121.9375 114.40625 122.429688 C 112.300781 122.921875 110.222656 123.515625 108.175781 124.207031 C 106.128906 124.898438 104.121094 125.683594 102.148438 126.570312 C 100.175781 127.453125 98.25 128.429688 96.371094 129.5 C 94.496094 130.570312 92.671875 131.726562 90.90625 132.96875 C 89.136719 134.210938 87.433594 135.539062 85.792969 136.945312 C 84.152344 138.351562 82.582031 139.835938 81.085938 141.390625 C 79.585938 142.949219 78.167969 144.574219 76.824219 146.269531 C 75.480469 147.960938 74.222656 149.714844 73.050781 151.53125 C 71.875 153.34375 70.789062 155.210938 69.796875 157.128906 C 68.800781 159.046875 67.898438 161.007812 67.089844 163.015625 C 66.285156 165.019531 65.574219 167.058594 64.960938 169.128906 C 64.351562 171.203125 63.839844 173.300781 63.429688 175.421875 C 63.019531 177.542969 62.710938 179.679688 62.503906 181.832031 C 62.296875 183.984375 62.195312 186.140625 62.195312 188.300781 C 62.199219 190.460938 62.300781 192.617188 62.507812 194.769531 C 62.71875 196.921875 63.027344 199.058594 63.4375 201.179688 C 63.851562 203.300781 64.363281 205.394531 64.976562 207.46875 C 65.589844 209.539062 66.300781 211.578125 67.113281 213.582031 C 67.921875 215.585938 68.824219 217.546875 69.820312 219.464844 C 70.816406 221.382812 71.902344 223.25 73.078125 225.0625 Z M 95.875 171.675781 " fill-opacity="1" fill-rule="nonzero"/><path fill="#113566" d="M 172.660156 173.269531 L 131.441406 173.269531 C 130.253906 173.265625 129.09375 173.4375 127.957031 173.777344 C 126.824219 174.121094 125.761719 174.617188 124.769531 175.269531 C 123.78125 175.921875 122.90625 176.703125 122.148438 177.613281 C 121.386719 178.523438 120.773438 179.523438 120.308594 180.617188 L 114.832031 193.476562 L 125.601562 193.476562 L 127.480469 189.085938 C 127.945312 187.996094 128.558594 186.996094 129.316406 186.085938 C 130.074219 185.171875 130.949219 184.390625 131.941406 183.738281 C 132.929688 183.085938 133.992188 182.585938 135.128906 182.246094 C 136.261719 181.90625 137.425781 181.734375 138.609375 181.734375 L 170.941406 181.734375 C 184.457031 181.90625 196.800781 171.089844 199.957031 158.6875 C 199.210938 159.804688 198.398438 160.871094 197.519531 161.890625 C 196.640625 162.910156 195.703125 163.871094 194.707031 164.773438 C 193.710938 165.675781 192.664062 166.511719 191.5625 167.289062 C 190.464844 168.0625 189.320312 168.765625 188.136719 169.398438 C 186.949219 170.03125 185.730469 170.589844 184.476562 171.074219 C 183.21875 171.558594 181.941406 171.960938 180.636719 172.289062 C 179.332031 172.613281 178.011719 172.859375 176.679688 173.023438 C 175.34375 173.1875 174.003906 173.269531 172.660156 173.269531 Z M 172.660156 173.269531 " fill-opacity="1" fill-rule="nonzero"/><path fill="#113566" d="M 151.578125 212.964844 L 115.105469 212.964844 C 113.828125 212.964844 112.578125 213.148438 111.355469 213.515625 C 110.132812 213.882812 108.988281 214.417969 107.921875 215.121094 C 106.855469 215.824219 105.914062 216.667969 105.097656 217.648438 C 104.277344 218.628906 103.617188 219.707031 103.117188 220.882812 L 88.121094 256.023438 C 93.597656 256.082031 100.042969 252.648438 101.5625 249.714844 L 110.257812 229.347656 C 110.761719 228.171875 111.421875 227.097656 112.238281 226.117188 C 113.058594 225.136719 114 224.292969 115.066406 223.589844 C 116.132812 222.886719 117.277344 222.351562 118.5 221.984375 C 119.722656 221.617188 120.972656 221.433594 122.25 221.433594 L 153.644531 221.433594 C 166.496094 221.433594 181.089844 209.835938 181.089844 193.476562 C 180.476562 194.914062 179.761719 196.300781 178.945312 197.632812 C 178.128906 198.964844 177.21875 200.234375 176.21875 201.433594 C 175.214844 202.632812 174.132812 203.753906 172.964844 204.796875 C 171.800781 205.839844 170.566406 206.789062 169.261719 207.652344 C 167.957031 208.511719 166.597656 209.277344 165.179688 209.9375 C 163.765625 210.601562 162.308594 211.15625 160.8125 211.605469 C 159.3125 212.054688 157.792969 212.394531 156.246094 212.621094 C 154.699219 212.851562 153.144531 212.964844 151.578125 212.964844 Z M 151.578125 212.964844 " fill-opacity="1" fill-rule="nonzero"/><g clip-path="url(#71f188af85)"><path fill="#113566" d="M 348.058594 206.519531 L 348.058594 201.738281 C 348.058594 171.238281 323.246094 146.332031 292.652344 146.332031 L 167.578125 146.332031 L 167.578125 261.835938 L 292.652344 261.835938 C 323.246094 261.835938 348.058594 237.023438 348.058594 206.519531 Z M 171.28125 258.136719 L 171.28125 150.03125 L 292.652344 150.03125 C 321.167969 150.03125 344.269531 173.222656 344.269531 201.648438 L 344.269531 206.429688 C 344.269531 234.945312 321.078125 258.046875 292.652344 258.046875 L 171.28125 258.046875 Z M 171.28125 258.136719 " fill-opacity="1" fill-rule="nonzero"/></g><g fill="#efb300" fill-opacity="1"><g transform="translate(197.481846, 210.623499)"><g><path d="M 13.625 0 L -0.703125 0 L 9.265625 -47.1875 L 23.65625 -47.1875 Z M 13.625 0 "/></g></g></g><g fill="#efb300" fill-opacity="1"><g transform="translate(218.057245, 210.623499)"><g><path d="M 5.0625 -27.59375 C 7.445312 -28.757812 9.890625 -29.613281 12.390625 -30.15625 C 14.898438 -30.695312 17.695312 -30.96875 20.78125 -30.96875 C 23.78125 -30.96875 26.257812 -30.734375 28.21875 -30.265625 C 30.1875 -29.796875 31.753906 -29.113281 32.921875 -28.21875 C 34.097656 -27.332031 34.921875 -26.28125 35.390625 -25.0625 C 35.859375 -23.851562 36.09375 -22.472656 36.09375 -20.921875 C 36.09375 -20.035156 36.03125 -19.078125 35.90625 -18.046875 C 35.789062 -17.015625 35.664062 -16.148438 35.53125 -15.453125 L 32.234375 0 L 20.921875 0 L 19.65625 -4.5 L 19.234375 -4.5 C 17.742188 -2.851562 16.003906 -1.597656 14.015625 -0.734375 C 12.023438 0.128906 10.046875 0.5625 8.078125 0.5625 C 6.953125 0.5625 5.847656 0.394531 4.765625 0.0625 C 3.691406 -0.257812 2.734375 -0.757812 1.890625 -1.4375 C 1.046875 -2.113281 0.367188 -2.976562 -0.140625 -4.03125 C -0.648438 -5.09375 -0.90625 -6.367188 -0.90625 -7.859375 C -0.90625 -10.296875 -0.238281 -12.226562 1.09375 -13.65625 C 2.425781 -15.082031 4.179688 -16.15625 6.359375 -16.875 C 8.535156 -17.601562 10.988281 -18.0625 13.71875 -18.25 C 16.457031 -18.4375 19.210938 -18.53125 21.984375 -18.53125 C 22.078125 -19 22.191406 -19.664062 22.328125 -20.53125 C 22.472656 -21.40625 22.546875 -22.171875 22.546875 -22.828125 C 22.546875 -23.660156 22.320312 -24.441406 21.875 -25.171875 C 21.425781 -25.898438 20.5 -26.265625 19.09375 -26.265625 C 17.457031 -26.265625 16.253906 -25.785156 15.484375 -24.828125 C 14.710938 -23.867188 14.207031 -22.707031 13.96875 -21.34375 L 3.71875 -21.34375 Z M 21.203125 -15.234375 L 19.9375 -15.234375 C 18.582031 -15.234375 17.425781 -15.054688 16.46875 -14.703125 C 15.507812 -14.359375 14.734375 -13.90625 14.140625 -13.34375 C 13.554688 -12.78125 13.125 -12.144531 12.84375 -11.4375 C 12.5625 -10.738281 12.421875 -10.039062 12.421875 -9.34375 C 12.421875 -8.21875 12.710938 -7.375 13.296875 -6.8125 C 13.890625 -6.25 14.582031 -5.96875 15.375 -5.96875 C 16.363281 -5.96875 17.335938 -6.316406 18.296875 -7.015625 C 19.253906 -7.722656 19.847656 -8.660156 20.078125 -9.828125 Z M 21.203125 -15.234375 "/></g></g></g><g fill="#efb300" fill-opacity="1"><g transform="translate(256.820471, 210.623499)"><g><path d="M 21.5625 -21.34375 C 21.601562 -21.582031 21.644531 -21.816406 21.6875 -22.046875 C 21.738281 -22.285156 21.765625 -22.546875 21.765625 -22.828125 C 21.765625 -23.660156 21.613281 -24.441406 21.3125 -25.171875 C 21.007812 -25.898438 20.410156 -26.265625 19.515625 -26.265625 C 18.722656 -26.265625 17.925781 -25.921875 17.125 -25.234375 C 16.332031 -24.554688 15.9375 -23.660156 15.9375 -22.546875 C 15.9375 -21.796875 16.132812 -21.195312 16.53125 -20.75 C 16.9375 -20.300781 17.460938 -19.9375 18.109375 -19.65625 C 18.765625 -19.375 19.503906 -19.140625 20.328125 -18.953125 C 21.148438 -18.765625 21.957031 -18.578125 22.75 -18.390625 C 23.875 -18.109375 24.9375 -17.769531 25.9375 -17.375 C 26.945312 -16.976562 27.847656 -16.453125 28.640625 -15.796875 C 29.441406 -15.140625 30.078125 -14.332031 30.546875 -13.375 C 31.015625 -12.414062 31.25 -11.234375 31.25 -9.828125 C 31.25 -7.859375 30.789062 -6.207031 29.875 -4.875 C 28.96875 -3.539062 27.703125 -2.460938 26.078125 -1.640625 C 24.460938 -0.828125 22.566406 -0.257812 20.390625 0.0625 C 18.222656 0.394531 15.894531 0.5625 13.40625 0.5625 C 9.613281 0.5625 6.476562 0.28125 4 -0.28125 C 1.519531 -0.84375 -0.207031 -1.378906 -1.1875 -1.890625 L 0.28125 -8.921875 L 9.765625 -8.921875 C 9.710938 -8.679688 9.6875 -8.457031 9.6875 -8.25 C 9.6875 -8.039062 9.6875 -7.816406 9.6875 -7.578125 C 9.6875 -6.503906 9.929688 -5.648438 10.421875 -5.015625 C 10.921875 -4.390625 11.773438 -4.078125 12.984375 -4.078125 C 14.347656 -4.078125 15.320312 -4.460938 15.90625 -5.234375 C 16.488281 -6.003906 16.78125 -6.71875 16.78125 -7.375 C 16.78125 -8.03125 16.535156 -8.601562 16.046875 -9.09375 C 15.554688 -9.582031 14.9375 -10.003906 14.1875 -10.359375 C 13.4375 -10.710938 12.601562 -11.015625 11.6875 -11.265625 C 10.78125 -11.523438 9.90625 -11.769531 9.0625 -12 C 8.445312 -12.144531 7.753906 -12.378906 6.984375 -12.703125 C 6.210938 -13.035156 5.472656 -13.503906 4.765625 -14.109375 C 4.066406 -14.722656 3.484375 -15.507812 3.015625 -16.46875 C 2.546875 -17.425781 2.3125 -18.628906 2.3125 -20.078125 C 2.3125 -22.140625 2.816406 -23.859375 3.828125 -25.234375 C 4.835938 -26.617188 6.148438 -27.734375 7.765625 -28.578125 C 9.378906 -29.421875 11.203125 -30.03125 13.234375 -30.40625 C 15.273438 -30.78125 17.320312 -30.96875 19.375 -30.96875 C 21.957031 -30.96875 24.394531 -30.734375 26.6875 -30.265625 C 28.976562 -29.796875 30.847656 -29.1875 32.296875 -28.4375 L 30.6875 -21.34375 Z M 21.5625 -21.34375 "/></g></g></g><g fill="#efb300" fill-opacity="1"><g transform="translate(291.019168, 210.623499)"><g><path d="M 19.09375 -25.703125 L 19.59375 -25.703125 C 20.476562 -26.585938 21.507812 -27.40625 22.6875 -28.15625 C 23.664062 -28.8125 24.832031 -29.394531 26.1875 -29.90625 C 27.550781 -30.425781 29.070312 -30.6875 30.75 -30.6875 C 33.1875 -30.6875 35.203125 -30.066406 36.796875 -28.828125 C 38.390625 -27.585938 39.1875 -25.890625 39.1875 -23.734375 C 39.1875 -23.078125 39.113281 -22.335938 38.96875 -21.515625 C 38.832031 -20.703125 38.671875 -19.835938 38.484375 -18.921875 C 38.296875 -18.015625 38.09375 -17.101562 37.875 -16.1875 C 37.664062 -15.269531 37.492188 -14.4375 37.359375 -13.6875 L 34.40625 0 L 20.15625 0 L 24.015625 -18.328125 C 24.109375 -18.929688 24.222656 -19.550781 24.359375 -20.1875 C 24.503906 -20.820312 24.578125 -21.394531 24.578125 -21.90625 C 24.578125 -22.613281 24.398438 -23.1875 24.046875 -23.625 C 23.691406 -24.070312 23.164062 -24.296875 22.46875 -24.296875 C 21.625 -24.296875 20.816406 -23.988281 20.046875 -23.375 C 19.273438 -22.769531 18.675781 -22.234375 18.25 -21.765625 L 13.625 0 L -0.703125 0 L 9.265625 -47.1875 L 23.65625 -47.1875 Z M 19.09375 -25.703125 "/></g></g></g><g fill="#113566" fill-opacity="1"><g transform="translate(192.749992, 247.308104)"><g><path d="M 3.9375 -32.09375 L 16.28125 -32.09375 L 17.140625 -10.203125 L 25.578125 -32.09375 L 35.578125 -32.09375 L 36.90625 -10.203125 L 45.390625 -32.09375 L 50.703125 -32.09375 L 38.21875 0 L 26.84375 0 L 25.78125 -18.140625 L 18.203125 0 L 6.0625 0 Z M 3.9375 -32.09375 "/></g></g></g><g fill="#113566" fill-opacity="1"><g transform="translate(240.449386, 247.308104)"><g><path d="M 3.640625 -19.859375 C 5.359375 -20.703125 7.117188 -21.316406 8.921875 -21.703125 C 10.722656 -22.097656 12.738281 -22.296875 14.96875 -22.296875 C 17.125 -22.296875 18.90625 -22.125 20.3125 -21.78125 C 21.726562 -21.445312 22.859375 -20.957031 23.703125 -20.3125 C 24.546875 -19.675781 25.132812 -18.921875 25.46875 -18.046875 C 25.8125 -17.171875 25.984375 -16.175781 25.984375 -15.0625 C 25.984375 -14.425781 25.941406 -13.734375 25.859375 -12.984375 C 25.773438 -12.242188 25.679688 -11.625 25.578125 -11.125 L 23.203125 0 L 15.0625 0 L 14.15625 -3.234375 L 13.84375 -3.234375 C 12.769531 -2.054688 11.515625 -1.15625 10.078125 -0.53125 C 8.648438 0.09375 7.226562 0.40625 5.8125 0.40625 C 5 0.40625 4.207031 0.285156 3.4375 0.046875 C 2.664062 -0.179688 1.972656 -0.539062 1.359375 -1.03125 C 0.753906 -1.519531 0.269531 -2.144531 -0.09375 -2.90625 C -0.46875 -3.664062 -0.65625 -4.582031 -0.65625 -5.65625 C -0.65625 -7.414062 -0.175781 -8.804688 0.78125 -9.828125 C 1.738281 -10.859375 3 -11.632812 4.5625 -12.15625 C 6.132812 -12.675781 7.90625 -13.003906 9.875 -13.140625 C 11.851562 -13.273438 13.835938 -13.34375 15.828125 -13.34375 C 15.890625 -13.675781 15.96875 -14.15625 16.0625 -14.78125 C 16.164062 -15.40625 16.21875 -15.953125 16.21875 -16.421875 C 16.21875 -17.035156 16.054688 -17.601562 15.734375 -18.125 C 15.421875 -18.644531 14.757812 -18.90625 13.75 -18.90625 C 12.570312 -18.90625 11.703125 -18.554688 11.140625 -17.859375 C 10.585938 -17.171875 10.226562 -16.335938 10.0625 -15.359375 L 2.671875 -15.359375 Z M 15.265625 -10.96875 L 14.359375 -10.96875 C 13.378906 -10.96875 12.539062 -10.835938 11.84375 -10.578125 C 11.15625 -10.328125 10.597656 -10 10.171875 -9.59375 C 9.753906 -9.195312 9.445312 -8.742188 9.25 -8.234375 C 9.050781 -7.734375 8.953125 -7.226562 8.953125 -6.71875 C 8.953125 -5.914062 9.160156 -5.3125 9.578125 -4.90625 C 9.992188 -4.5 10.488281 -4.296875 11.0625 -4.296875 C 11.769531 -4.296875 12.46875 -4.546875 13.15625 -5.046875 C 13.851562 -5.554688 14.285156 -6.234375 14.453125 -7.078125 Z M 15.265625 -10.96875 "/></g></g></g><g fill="#113566" fill-opacity="1"><g transform="translate(268.341405, 247.308104)"><g><path d="M 4.09375 -21.734375 L 12.328125 -21.734375 L 13.09375 -17.9375 L 13.453125 -17.9375 C 14.222656 -19.15625 15.210938 -20.1875 16.421875 -21.03125 C 17.640625 -21.875 19.242188 -22.296875 21.234375 -22.296875 C 21.367188 -22.296875 21.578125 -22.285156 21.859375 -22.265625 C 22.148438 -22.242188 22.472656 -22.191406 22.828125 -22.109375 C 23.179688 -22.023438 23.550781 -21.90625 23.9375 -21.75 C 24.320312 -21.601562 24.703125 -21.394531 25.078125 -21.125 L 22.84375 -10.71875 L 17.34375 -10.71875 C 17.269531 -12.800781 17.082031 -14.253906 16.78125 -15.078125 C 16.476562 -15.910156 15.988281 -16.328125 15.3125 -16.328125 C 14.976562 -16.328125 14.613281 -16.25 14.21875 -16.09375 C 13.832031 -15.945312 13.441406 -15.617188 13.046875 -15.109375 L 9.8125 0 L -0.5 0 Z M 4.09375 -21.734375 "/></g></g></g><g fill="#113566" fill-opacity="1"><g transform="translate(292.746907, 247.308104)"><g><path d="M 15.515625 -15.359375 C 15.546875 -15.535156 15.578125 -15.707031 15.609375 -15.875 C 15.648438 -16.039062 15.671875 -16.222656 15.671875 -16.421875 C 15.671875 -17.035156 15.5625 -17.601562 15.34375 -18.125 C 15.125 -18.644531 14.691406 -18.90625 14.046875 -18.90625 C 13.472656 -18.90625 12.898438 -18.660156 12.328125 -18.171875 C 11.753906 -17.679688 11.46875 -17.03125 11.46875 -16.21875 C 11.46875 -15.6875 11.609375 -15.257812 11.890625 -14.9375 C 12.179688 -14.613281 12.5625 -14.347656 13.03125 -14.140625 C 13.507812 -13.941406 14.039062 -13.773438 14.625 -13.640625 C 15.21875 -13.515625 15.800781 -13.382812 16.375 -13.25 C 17.1875 -13.039062 17.953125 -12.789062 18.671875 -12.5 C 19.398438 -12.21875 20.050781 -11.84375 20.625 -11.375 C 21.195312 -10.90625 21.648438 -10.320312 21.984375 -9.625 C 22.328125 -8.9375 22.5 -8.085938 22.5 -7.078125 C 22.5 -5.660156 22.164062 -4.472656 21.5 -3.515625 C 20.84375 -2.554688 19.929688 -1.78125 18.765625 -1.1875 C 17.609375 -0.59375 16.242188 -0.179688 14.671875 0.046875 C 13.109375 0.285156 11.4375 0.40625 9.65625 0.40625 C 6.925781 0.40625 4.664062 0.203125 2.875 -0.203125 C 1.09375 -0.609375 -0.148438 -0.992188 -0.859375 -1.359375 L 0.203125 -6.421875 L 7.03125 -6.421875 C 6.988281 -6.253906 6.96875 -6.09375 6.96875 -5.9375 C 6.96875 -5.789062 6.96875 -5.628906 6.96875 -5.453125 C 6.96875 -4.679688 7.144531 -4.066406 7.5 -3.609375 C 7.851562 -3.160156 8.46875 -2.9375 9.34375 -2.9375 C 10.320312 -2.9375 11.019531 -3.210938 11.4375 -3.765625 C 11.863281 -4.316406 12.078125 -4.832031 12.078125 -5.3125 C 12.078125 -5.78125 11.898438 -6.191406 11.546875 -6.546875 C 11.191406 -6.898438 10.742188 -7.203125 10.203125 -7.453125 C 9.671875 -7.703125 9.078125 -7.921875 8.421875 -8.109375 C 7.765625 -8.296875 7.128906 -8.472656 6.515625 -8.640625 C 6.078125 -8.742188 5.582031 -8.910156 5.03125 -9.140625 C 4.476562 -9.378906 3.945312 -9.71875 3.4375 -10.15625 C 2.925781 -10.59375 2.503906 -11.15625 2.171875 -11.84375 C 1.835938 -12.539062 1.671875 -13.410156 1.671875 -14.453125 C 1.671875 -15.941406 2.03125 -17.179688 2.75 -18.171875 C 3.476562 -19.160156 4.421875 -19.957031 5.578125 -20.5625 C 6.742188 -21.175781 8.0625 -21.617188 9.53125 -21.890625 C 11 -22.160156 12.472656 -22.296875 13.953125 -22.296875 C 15.804688 -22.296875 17.554688 -22.125 19.203125 -21.78125 C 20.859375 -21.445312 22.207031 -21.007812 23.25 -20.46875 L 22.09375 -15.359375 Z M 15.515625 -15.359375 "/></g></g></g><path stroke-linecap="butt" transform="matrix(0.75, 0, 0, 0.75, 87.749999, 258.093734)" fill="none" stroke-linejoin="miter" d="M 0.000001683 2.500021 L 160.000012 2.500021 " stroke="#113566" stroke-width="5" stroke-opacity="1" stroke-miterlimit="4"/></svg>