<?xml version="1.0" encoding="utf-8"?>
<!-- Generator: Adobe Illustrator 15.0.2, SVG Export Plug-In . SVG Version: 6.00 Build 0)  -->
<!DOCTYPE svg PUBLIC "-//W3C//DTD SVG 1.1//EN" "http://www.w3.org/Graphics/SVG/1.1/DTD/svg11.dtd">
<svg version="1.1" id="Layer_1" xmlns="http://www.w3.org/2000/svg" xmlns:xlink="http://www.w3.org/1999/xlink" x="0px" y="0px"
	 width="387.333px" height="312px" viewBox="0 0 387.333 312" enable-background="new 0 0 387.333 312" xml:space="preserve">
<line fill="none" stroke="#231F20" stroke-miterlimit="10" x1="31" y1="13.667" x2="31" y2="279.667"/>
<line fill="none" stroke="#231F20" stroke-miterlimit="10" x1="30" y1="280.667" x2="235" y2="280.667"/>
<line fill="none" stroke="#231F20" stroke-miterlimit="10" x1="235" y1="281.667" x2="32" y2="14.667"/>
<line fill="none" x1="30" y1="280.667" x2="167" y2="191.667"/>
<line fill="none" stroke="#231F20" x1="29" y1="281.667" x2="164" y2="189.667"/>
<g>
	<text transform="matrix(0.938 0 -0.3127 0.9499 34.3037 63.1353)" font-family="'SymbolMT'" font-size="26">α</text>
</g>
<g>
	<text transform="matrix(0.9652 0 -0.3217 0.9468 185.356 271.8535)" font-family="'SymbolMT'" font-size="26">β</text>
</g>
<g>
	<text transform="matrix(0.9652 0 -0.3217 0.9468 36.856 251.3535)" font-family="'SymbolMT'" font-size="26">β</text>
</g>
<path fill="none" stroke="#231F20" stroke-width="0.5" d="M45.5,33.667c-4.152,5.791-7.512,9.715-13.5,4.5"/>
<path fill="none" stroke="#231F20" stroke-width="0.5" d="M53.281,266.885c5.792,4.152,9.715,7.512,4.5,13.5"/>
<path fill="none" stroke="#231F20" stroke-width="0.5" d="M32.024,262.815c7.031-1.159,12.181-1.558,12.728,6.364"/>
<path fill="none" stroke="#231F20" stroke-width="0.5" d="M216.022,280.044c-1.159-7.031-1.558-12.181,6.364-12.728"/>
<g>
	<text transform="matrix(0.9875 0 0 1 129.5527 302.1411)" font-family="'TimesNewRomanPS-ItalicMT'" font-size="24.6857">a</text>
</g>
<g>
	<text transform="matrix(1.0241 0 0 1 6.9199 159.313)" font-family="'TimesNewRomanPS-ItalicMT'" font-size="23.8041">b</text>
</g>
<g>
	<text transform="matrix(1.0241 0 0 1 100.5449 215.313)" font-family="'TimesNewRomanPS-ItalicMT'" font-size="23.8041">h</text>
</g>
<path fill="none" stroke="#231F20" stroke-width="0.5" d="M151,175.667c-6.118,5.927-9.628,15.872-4.5,23.5"/>
<circle cx="153" cy="187.667" r="1.6"/>
<path fill="none" stroke="#231F20" stroke-width="0.5" d="M172.562,202.784c-6.24,5.798-16.354,8.784-23.703,3.264"/>
<circle cx="160.683" cy="200.158" r="1.6"/>
<g>
	
		<line fill="none" stroke="#000000" stroke-width="0.5062" stroke-linecap="square" stroke-miterlimit="10" x1="283.437" y1="38.682" x2="298.783" y2="38.682"/>
	
		<line fill="none" stroke="#000000" stroke-width="0.5062" stroke-linecap="square" stroke-miterlimit="10" x1="284.685" y1="103.735" x2="298.906" y2="103.735"/>
	<text transform="matrix(0.9857 0 0 1 211.1299 44.7583)"><tspan x="0" y="0" font-family="'TimesNewRomanPSMT'" font-size="24.3">si</tspan><tspan x="16.159" y="0" font-family="'TimesNewRomanPSMT'" font-size="24.3" letter-spacing="85.218">n</tspan><tspan x="114.429" y="0" font-family="'TimesNewRomanPSMT'" font-size="24.3">c</tspan><tspan x="125.361" y="0" font-family="'TimesNewRomanPSMT'" font-size="24.3">o</tspan><tspan x="137.194" y="0" font-family="'TimesNewRomanPSMT'" font-size="24.3">s</tspan></text>
	<text transform="matrix(0.9857 0 0 1 211.1299 109.8052)"><tspan x="0" y="0" font-family="'TimesNewRomanPSMT'" font-size="24.3">si</tspan><tspan x="16.159" y="0" font-family="'TimesNewRomanPSMT'" font-size="24.3" letter-spacing="86.232">n</tspan><tspan x="114.55" y="0" font-family="'TimesNewRomanPSMT'" font-size="24.3">c</tspan><tspan x="125.482" y="0" font-family="'TimesNewRomanPSMT'" font-size="24.3">o</tspan><tspan x="137.315" y="0" font-family="'TimesNewRomanPSMT'" font-size="24.3">s</tspan></text>
	<text transform="matrix(0.9857 0 0 1 284.8022 29.5708)" font-family="'TimesNewRomanPS-ItalicMT'" font-size="24.3">a</text>
	<text transform="matrix(0.9857 0 0 1 285.7397 63.6021)" font-family="'TimesNewRomanPS-ItalicMT'" font-size="24.3">c</text>
	<text transform="matrix(0.9857 0 0 1 285.8022 94.6177)" font-family="'TimesNewRomanPS-ItalicMT'" font-size="24.3">b</text>
	<text transform="matrix(0.9857 0 0 1 286.4272 128.6646)" font-family="'TimesNewRomanPS-ItalicMT'" font-size="24.3">c</text>
	<text transform="matrix(0.9365 0 -0.3122 0.95 240.9819 44.7461)"><tspan x="0" y="0" font-family="'SymbolMT'" font-size="25.5781" letter-spacing="109.989">α</tspan><tspan x="126.149" y="0" font-family="'SymbolMT'" font-size="25.5781">β</tspan></text>
	<text transform="matrix(0.9365 0 -0.3122 0.95 243.1143 109.7788)"><tspan x="0" y="0" font-family="'SymbolMT'" font-size="25.5781" letter-spacing="106.785">β</tspan><tspan x="121.748" y="0" font-family="'SymbolMT'" font-size="25.5781">α</tspan></text>
	<text transform="matrix(0.9857 0 0 1 263.9893 44.7583)"><tspan x="0" y="0" font-family="'SymbolMT'" font-size="24.3" letter-spacing="28.406">=</tspan><tspan x="41.938" y="0" font-family="'SymbolMT'" font-size="24.3">=</tspan></text>
	<text transform="matrix(0.9857 0 0 1 265.2236 109.8052)"><tspan x="0" y="0" font-family="'SymbolMT'" font-size="24.3" letter-spacing="27.391">=</tspan><tspan x="40.795" y="0" font-family="'SymbolMT'" font-size="24.3">=</tspan></text>
</g>
<text transform="matrix(1 0 0 1 9.6665 19.333)" font-family="'ArialMT'" font-size="20">A</text>
<text transform="matrix(1 0 0 1 244.9995 294.6665)" font-family="'ArialMT'" font-size="20">B</text>
<text transform="matrix(1 0 0 1 16.3335 306.6665)" font-family="'ArialMT'" font-size="20">C</text>
<g>
	<text transform="matrix(0.938 0 -0.3127 0.9499 68.9702 270.8022)" font-family="'SymbolMT'" font-size="26">α</text>
</g>
<text transform="matrix(0.5944 0.7888 -0.7986 0.6018 128.3784 119.7354)"><tspan x="0" y="0" font-family="'TimesNewRomanPSMT'" font-size="24.2876">si</tspan><tspan x="16.151" y="0" font-family="'TimesNewRomanPSMT'" font-size="24.2876" letter-spacing="91.12">n</tspan><tspan x="119.932" y="0" font-family="'TimesNewRomanPSMT'" font-size="24.2876">si</tspan><tspan x="136.082" y="0" font-family="'TimesNewRomanPSMT'" font-size="24.2876">n</tspan></text>
<text transform="matrix(0.5944 0.7888 -0.7986 0.6018 198.7329 153.1758)" font-family="'TimesNewRomanPS-ItalicMT'" font-size="24.2876">c</text>
<text transform="matrix(0.5944 0.7888 -0.7986 0.6018 119.7744 108.3174)"><tspan x="0" y="0" font-family="'TimesNewRomanPS-ItalicMT'" font-size="24.2876" letter-spacing="106.307">b</tspan><tspan x="119.033" y="0" font-family="'TimesNewRomanPS-ItalicMT'" font-size="24.2876">a</tspan></text>
<text transform="matrix(0.5646 0.7493 -0.9468 0.3219 147.6201 145.2759)"><tspan x="0" y="0" font-family="'SymbolMT'" font-size="25.57" letter-spacing="109.789">β</tspan><tspan x="123.985" y="0" font-family="'SymbolMT'" font-size="25.57">α</tspan></text>
<text transform="matrix(0.5944 0.7888 -0.7986 0.6018 169.998 174.9658)" font-family="'SymbolMT'" font-size="24.2876">+</text>
<g>
	<path d="M144.795,100.031c-0.568-0.753-1.135-1.412-1.702-1.977c-0.567-0.563-1.133-0.953-1.7-1.167
		c-0.435-0.173-0.859-0.279-1.273-0.316c-0.414-0.039-0.808-0.037-1.182,0.004c-0.374,0.042-0.724,0.11-1.048,0.204
		c-0.325,0.095-0.623,0.204-0.894,0.328l-0.332-0.44c1.108-0.575,2.08-0.933,2.917-1.072c0.838-0.141,1.657-0.062,2.458,0.235
		c0.832,0.294,1.537,0.744,2.119,1.347c0.581,0.604,1.155,1.283,1.723,2.036l9.889,13.124l-1.086,0.818L144.795,100.031z"/>
	<path d="M154.078,112.35l1.086-0.818l14.654,19.445l-1.086,0.818L154.078,112.35z"/>
	<path d="M168.11,130.971l1.086-0.818l14.653,19.445l-1.086,0.818L168.11,130.971z"/>
	<path d="M175.632,140.953l1.086-0.818l14.653,19.446l-1.086,0.818L175.632,140.953z"/>
	<path d="M197.792,170.362c-0.404-0.537-0.72-1.03-0.947-1.48c-0.227-0.449-0.394-0.865-0.498-1.246
		c-0.105-0.381-0.167-0.726-0.185-1.032c-0.019-0.307-0.018-0.567,0.002-0.783c0.034-0.386,0.078-0.709,0.134-0.972
		c0.055-0.264,0.142-0.518,0.259-0.766c0.117-0.249,0.278-0.525,0.484-0.831c0.206-0.306,0.476-0.694,0.81-1.165
		c-0.546,0.189-0.994,0.342-1.344,0.456s-0.661,0.192-0.931,0.237c-0.271,0.043-0.541,0.056-0.809,0.037
		c-0.267-0.018-0.591-0.064-0.971-0.139c-0.222-0.053-0.476-0.127-0.76-0.223c-0.286-0.097-0.597-0.247-0.935-0.453
		c-0.338-0.206-0.691-0.479-1.061-0.822c-0.369-0.342-0.756-0.781-1.161-1.318l-3.378-4.482l1.086-0.818l3.58,4.751
		c0.164,0.217,0.363,0.442,0.599,0.675c0.235,0.232,0.479,0.449,0.731,0.65c0.251,0.201,0.501,0.379,0.747,0.533
		c0.247,0.155,0.479,0.27,0.697,0.346c0.737,0.287,1.475,0.381,2.214,0.283c0.74-0.096,1.438-0.281,2.094-0.555l0.52,0.689
		c-0.445,0.555-0.815,1.174-1.112,1.858c-0.297,0.685-0.409,1.42-0.337,2.207c0.013,0.229,0.06,0.485,0.14,0.765
		c0.081,0.281,0.183,0.569,0.306,0.866c0.124,0.298,0.265,0.591,0.424,0.882c0.159,0.291,0.32,0.545,0.484,0.762l3.638,4.828
		l-1.086,0.818L197.792,170.362z"/>
	<path d="M200.65,174.154l1.086-0.818l14.654,19.446l-1.086,0.818L200.65,174.154z"/>
	<path d="M214.684,192.776l1.086-0.818l14.653,19.445l-1.086,0.818L214.684,192.776z"/>
	<path d="M228.715,211.397l1.086-0.818l14.654,19.445l-1.086,0.818L228.715,211.397z"/>
	<path d="M243.597,238.571c0.185-0.239,0.369-0.498,0.555-0.777c0.185-0.28,0.349-0.594,0.492-0.941
		c0.143-0.349,0.253-0.727,0.33-1.137c0.078-0.408,0.092-0.846,0.046-1.311c-0.049-0.604-0.267-1.256-0.653-1.956
		c-0.385-0.7-0.863-1.427-1.431-2.181l-9.817-13.027l1.086-0.818l9.817,13.027c0.568,0.754,1.062,1.492,1.482,2.218
		c0.419,0.725,0.657,1.527,0.71,2.407c0.065,0.854-0.085,1.662-0.451,2.428s-0.977,1.602-1.835,2.509L243.597,238.571z"/>
</g>
</svg>
